<svg xmlns="http://www.w3.org/2000/svg" version="1.1" xmlns:xlink="http://www.w3.org/1999/xlink" xmlns:svgjs="http://svgjs.dev/svgjs" width="392" height="380"><svg version="1.1" xmlns="http://www.w3.org/2000/svg" viewBox="0 0 392 380">
  <title>AgriConnect Logo</title>
  <desc>The official AgriConnect logo, optimized for web use and accessibility.</desc>
<path d="M0 0 C0.85355576 -0.00979385 1.70711151 -0.01958771 2.58653259 -0.02967834 C28.94350402 -0.26973396 52.79423982 1.67452825 77.91015625 10.23828125 C78.58240234 10.45677734 79.25464844 10.67527344 79.94726562 10.90039062 C104.65751351 18.95538618 126.57732722 33.11855239 145.91015625 50.23828125 C146.82796875 51.03363281 147.74578125 51.82898437 148.69140625 52.6484375 C153.87935956 57.20352301 158.53492963 61.90433963 162.91015625 67.23828125 C163.33522461 67.74037109 163.76029297 68.24246094 164.19824219 68.75976562 C189.84300247 99.06880969 207.89263346 138.91360103 208.11328125 179.1015625 C208.11898132 179.93302292 208.1246814 180.76448334 208.1305542 181.62113953 C208.13995109 183.37672681 208.14651689 185.1323313 208.15039062 186.88793945 C208.15999095 189.50570772 208.19102086 192.12265323 208.22265625 194.74023438 C208.32099007 210.25246273 206.44304718 225.28312893 202.22265625 240.23828125 C201.96846924 241.14924561 201.71428223 242.06020996 201.45239258 242.9987793 C187.9567299 289.55295838 155.0136413 330.43210513 112.91015625 354.23828125 C112.29269531 354.59341797 111.67523438 354.94855469 111.0390625 355.31445312 C84.69178005 370.36631647 53.4937787 380.26610293 22.984375 380.44140625 C22.16304581 380.44842056 21.34171661 380.45543488 20.49549866 380.46266174 C17.86282802 380.48005547 15.23038222 380.48651299 12.59765625 380.48828125 C11.69865601 380.48895599 10.79965576 380.48963074 9.87341309 380.49032593 C-3.02069207 380.4749244 -15.47410584 380.13179912 -28.08984375 377.23828125 C-28.89115723 377.0666748 -29.6924707 376.89506836 -30.51806641 376.71826172 C-61.62036525 369.99814733 -92.16823484 356.50193361 -116.08984375 335.23828125 C-116.87875 334.55765625 -117.66765625 333.87703125 -118.48046875 333.17578125 C-121.0636753 330.90922583 -123.58368237 328.58983009 -126.08984375 326.23828125 C-126.88479248 325.49433105 -126.88479248 325.49433105 -127.69580078 324.73535156 C-159.59916425 294.62615383 -182.87632261 249.62757127 -184.2668457 205.22265625 C-184.29295051 203.81129152 -184.313138 202.39980782 -184.328125 200.98828125 C-184.33791885 200.22095673 -184.34771271 199.4536322 -184.35780334 198.66305542 C-184.90878865 144.25505703 -167.6837662 96.86217228 -129.71508789 57.52905273 C-96.26521043 23.49301676 -48.17737643 0.45747154 0 0 Z " fill="#9DEF3D" transform="translate(184.08984375,-0.23828125)"></path>
<path d="M0 0 C1.51275009 -0.02398109 1.51275009 -0.02398109 3.05606079 -0.04844666 C4.68419205 -0.05649071 4.68419205 -0.05649071 6.34521484 -0.06469727 C7.47003265 -0.07372574 8.59485046 -0.08275421 9.75375366 -0.09205627 C12.13593891 -0.10656482 14.51816406 -0.115447 16.90039062 -0.11914062 C20.52201854 -0.13099182 24.1419175 -0.18013655 27.76318359 -0.23071289 C30.08218573 -0.24018275 32.4011983 -0.24741509 34.72021484 -0.25219727 C36.33012802 -0.28149574 36.33012802 -0.28149574 37.9725647 -0.31138611 C46.82030952 -0.2590467 53.92646073 2.14037164 60.36865234 8.36889648 C63.98305141 13.0145224 64.85817723 18.64047036 65.93115234 24.30639648 C66.21345703 25.57676758 66.21345703 25.57676758 66.50146484 26.87280273 C67.17472489 30.68590279 66.98872291 34.44916858 66.93115234 38.30639648 C68.13513672 38.28319336 69.33912109 38.25999023 70.57958984 38.23608398 C72.15510449 38.21732786 73.73062583 38.19912749 75.30615234 38.18139648 C76.10021484 38.16463867 76.89427734 38.14788086 77.71240234 38.13061523 C79.7860725 38.11304176 81.85998476 38.20304481 83.93115234 38.30639648 C85.93115234 40.30639648 85.93115234 40.30639648 86.24365234 43.61889648 C85.83483242 48.44297164 84.69517765 50.60319963 81.23193359 53.94702148 C77.70851415 56.9097396 75.12789325 58.68973883 70.43115234 58.68139648 C68.69865234 58.49577148 68.69865234 58.49577148 66.93115234 58.30639648 C67.04624895 59.72390212 67.17368892 61.14040818 67.30615234 62.55639648 C67.41056641 63.73975586 67.41056641 63.73975586 67.51708984 64.94702148 C67.94622347 67.39227348 68.71715872 69.15476551 69.93115234 71.30639648 C70.59115234 71.30639648 71.25115234 71.30639648 71.93115234 71.30639648 C72.03137695 71.94552979 72.13160156 72.58466309 72.23486328 73.24316406 C74.49540947 88.34392143 74.49540947 88.34392143 79.04833984 102.85327148 C82.31340582 111.92610969 82.21144452 121.79203429 81.93115234 131.30639648 C86.78821719 133.38769541 86.78821719 133.38769541 91.93115234 134.30639648 C94.45122079 132.86978337 94.45122079 132.86978337 95.93115234 130.30639648 C96.02106747 126.35013074 94.78942112 123.96142688 92.61865234 120.80639648 C86.4596852 111.20986629 85.56602816 101.17332188 85.49365234 90.05639648 C85.48358154 89.05092773 85.47351074 88.04545898 85.46313477 87.00952148 C85.61993067 73.48726483 91.12311313 62.40222443 97.55615234 50.80639648 C98.15097412 49.72720947 98.15097412 49.72720947 98.7578125 48.6262207 C101.69078276 43.42658127 101.69078276 43.42658127 103.93115234 42.30639648 C103.76615234 43.19327148 103.60115234 44.08014648 103.43115234 44.99389648 C102.10362779 55.0710147 102.88316868 63.62058472 106.06445312 73.21801758 C111.6488059 90.13259008 109.3233239 107.39347756 101.93115234 123.30639648 C102.43904297 122.8590918 102.94693359 122.41178711 103.47021484 121.95092773 C104.50275391 121.04407227 104.50275391 121.04407227 105.55615234 120.11889648 C106.28060547 119.4756543 107.00505859 118.83241211 107.75146484 118.16967773 C109.93115234 116.30639648 109.93115234 116.30639648 111.79833984 114.97436523 C114.87521441 112.77344299 115.86140662 111.72487083 116.49365234 107.93139648 C115.87982751 103.97563646 114.58287046 100.94017634 112.93115234 97.30639648 C110.37243693 84.65206924 111.55165941 72.60823036 118.69287109 61.58764648 C120.67319218 59.04897929 122.74944919 56.67401869 124.93115234 54.30639648 C125.76517578 53.37827148 126.59919922 52.45014648 127.45849609 51.49389648 C129.15960903 49.61116096 130.86896895 47.73583647 132.58740234 45.86889648 C135.44640427 42.74305438 138.19833458 39.54262805 140.93115234 36.30639648 C141.93115234 39.30639648 141.93115234 39.30639648 140.58349609 42.08764648 C137.88487581 47.93542331 137.98867085 54.47645422 137.49365234 60.80639648 C135.19848937 87.04340606 135.19848937 87.04340606 127.98193359 98.57202148 C126.76492823 100.43653412 126.76492823 100.43653412 125.93115234 103.30639648 C126.60919922 102.73791992 127.28724609 102.16944336 127.98583984 101.58374023 C145.1949253 87.30639648 145.1949253 87.30639648 148.93115234 87.30639648 C148.91020508 86.48550537 148.88925781 85.66461426 148.86767578 84.81884766 C148.79875654 81.71944474 148.74899613 78.62043734 148.71142578 75.52050781 C148.68185101 73.54066741 148.63097702 71.56118148 148.57958984 69.58178711 C148.4595496 57.72781297 150.78511389 48.16666106 158.93115234 39.30639648 C164.96969624 33.30639648 164.96969624 33.30639648 168.93115234 33.30639648 C168.74645308 49.8453761 166.66407385 62.93537829 157.93115234 77.30639648 C157.25828798 78.63661292 156.59081681 79.96958497 155.93115234 81.30639648 C169.56514163 74.62658745 169.56514163 74.62658745 177.63818359 62.26342773 C181.71735377 52.93432858 190.2677718 47.04473523 198.93115234 42.30639648 C199.79377686 41.82686523 199.79377686 41.82686523 200.67382812 41.33764648 C206.13485181 38.43470313 211.7340991 36.69580919 217.68115234 35.05639648 C219.07914062 34.65420898 219.07914062 34.65420898 220.50537109 34.24389648 C224.52856026 33.11255491 227.71190484 32.30639648 231.93115234 32.30639648 C230.58866659 35.34673187 229.14571025 37.22217566 226.68115234 39.43139648 C223.88838201 42.12647732 221.95632774 44.73785814 220.05615234 48.11889648 C212.32915755 61.58477335 201.37934781 69.26505395 186.93115234 74.30639648 C185.70138672 74.55905273 184.47162109 74.81170898 183.20458984 75.07202148 C177.76290859 76.37859419 173.31846484 79.36511161 168.61865234 82.30639648 C167.72597656 82.85295898 166.83330078 83.39952148 165.91357422 83.96264648 C162.54962265 86.02809756 159.2158269 88.11661345 155.93115234 90.30639648 C157.57741222 90.01714709 159.22313416 89.72483594 160.86865234 89.43139648 C161.78517578 89.26897461 162.70169922 89.10655273 163.64599609 88.93920898 C165.3611027 88.60883173 167.0772738 88.26582886 168.76025391 87.79858398 C175.66971965 85.96218113 182.57621473 86.0030812 189.67773438 86.0456543 C191.79505281 86.05634046 193.91151645 86.04572855 196.02880859 86.03295898 C203.03080879 86.02629651 209.71492203 86.38535813 216.59423828 87.82983398 C219.75581133 88.47456764 222.90192796 88.72386588 226.11865234 88.93139648 C227.22595703 89.00616211 228.33326172 89.08092773 229.47412109 89.15795898 C230.69035156 89.23143555 230.69035156 89.23143555 231.93115234 89.30639648 C227.99023692 94.64570125 223.6103689 97.91811813 217.93115234 101.30639648 C217.31498047 101.67764648 216.69880859 102.04889648 216.06396484 102.43139648 C202.41679517 109.92855408 186.64613459 111.60858229 171.71240234 107.35327148 C165.52743159 105.0252207 160.31202996 101.38704856 155.11865234 97.36889648 C152.21828715 95.03300056 152.21828715 95.03300056 149.48388672 95.50463867 C146.78937023 96.35092713 145.12283681 97.34733095 142.89990234 99.07202148 C142.17158203 99.63276367 141.44326172 100.19350586 140.69287109 100.77124023 C139.94650391 101.3603418 139.20013672 101.94944336 138.43115234 102.55639648 C137.68478516 103.1300293 136.93841797 103.70366211 136.16943359 104.29467773 C132.15136135 107.41668431 128.4309557 110.61215961 124.93115234 114.30639648 C125.89601562 114.08983398 125.89601562 114.08983398 126.88037109 113.86889648 C137.79308222 111.62719834 148.12497266 111.57065479 158.93115234 114.30639648 C159.84896484 114.51264648 160.76677734 114.71889648 161.71240234 114.93139648 C167.97949762 116.44651842 172.67747262 118.62882068 177.93115234 122.30639648 C178.63755859 122.73694336 179.34396484 123.16749023 180.07177734 123.61108398 C187.88124785 128.44421783 195.67413211 134.53243869 198.93115234 143.30639648 C169.08225353 144.14025419 169.08225353 144.14025419 158.93115234 139.30639648 C158.02365234 138.89389648 157.11615234 138.48139648 156.18115234 138.05639648 C150.12966793 135.03065428 145.04260344 131.12277565 139.78466797 126.93139648 C133.785586 122.24394176 126.83170071 117.5541049 118.93115234 118.30639648 C116.82903609 119.61874146 116.82903609 119.61874146 114.97802734 121.51733398 C114.27677734 122.18506836 113.57552734 122.85280273 112.85302734 123.54077148 C112.13630859 124.24717773 111.41958984 124.95358398 110.68115234 125.68139648 C109.94896484 126.38006836 109.21677734 127.07874023 108.46240234 127.79858398 C104.73380573 131.19845163 104.73380573 131.19845163 101.93115234 135.30639648 C102.85154297 134.82299805 102.85154297 134.82299805 103.79052734 134.32983398 C108.26553546 132.87156019 112.50305882 132.93795763 117.18115234 132.93139648 C118.08478516 132.9069043 118.98841797 132.88241211 119.91943359 132.85717773 C126.47992728 132.82885906 131.18658012 134.19249019 136.93115234 137.30639648 C138.01783203 137.88260742 139.10451172 138.45881836 140.22412109 139.05249023 C141.65691406 139.88973633 141.65691406 139.88973633 143.11865234 140.74389648 C144.08158203 141.29948242 145.04451172 141.85506836 146.03662109 142.42749023 C148.93115234 144.30639648 148.93115234 144.30639648 151.89208984 146.77905273 C161.36967278 154.66079587 172.25171474 158.90398329 183.93115234 162.30639648 C183.93115234 162.96639648 183.93115234 163.62639648 183.93115234 164.30639648 C170.67490832 170.00800682 155.0905367 172.61491735 141.24365234 167.24389648 C135.7608709 164.47920782 130.81316299 161.01183493 125.93115234 157.30639648 C116.72208926 150.34990998 107.82462705 145.13928573 96.93115234 141.30639648 C97.35267578 142.12624023 97.77419922 142.94608398 98.20849609 143.79077148 C98.75634766 144.86842773 99.30419922 145.94608398 99.86865234 147.05639648 C100.41392578 148.12374023 100.95919922 149.19108398 101.52099609 150.29077148 C103.81322947 155.19272209 104.03546818 158.88197315 103.93115234 164.30639648 C104.71876953 164.32057617 105.50638672 164.33475586 106.31787109 164.34936523 C119.30844551 164.91818329 128.89378683 169.40012678 139.73583984 176.31030273 C147.795509 181.34513273 155.44794952 185.08952533 164.93115234 186.30639648 C159.13405087 193.26291825 148.05380492 195.02239129 139.37255859 195.83374023 C122.60224649 196.75320907 110.68005462 190.64712293 97.75170898 180.42114258 C90.13186368 174.41091416 82.05523295 170.51672114 72.93115234 167.30639648 C73.26115234 169.28639648 73.59115234 171.26639648 73.93115234 173.30639648 C72.38427734 173.55583008 72.38427734 173.55583008 70.80615234 173.81030273 C65.72717394 175.26564508 63.6699438 178.97813499 60.93115234 183.24389648 C60.42970703 183.97286133 59.92826172 184.70182617 59.41162109 185.45288086 C57.49719446 188.28370702 57.49719446 188.28370702 55.93115234 191.30639648 C56.26115234 192.29639648 56.59115234 193.28639648 56.93115234 194.30639648 C57.74455078 194.23420898 58.55794922 194.16202148 59.39599609 194.08764648 C84.82949674 192.02779041 104.17871688 195.42537494 126.61865234 207.99389648 C136.65334004 213.50678046 146.52902751 215.8955091 157.93115234 216.30639648 C157.93115234 216.96639648 157.93115234 217.62639648 157.93115234 218.30639648 C154.28966528 220.08626757 150.64222504 221.8536017 146.99365234 223.61889648 C145.4612793 224.36816406 145.4612793 224.36816406 143.89794922 225.13256836 C138.00584933 227.975083 132.19410389 230.41844151 125.93115234 232.30639648 C124.94115234 232.63639648 123.95115234 232.96639648 122.93115234 233.30639648 C119.41538814 233.58907687 115.89452249 233.58407881 112.36865234 233.61889648 C111.41667969 233.64790039 110.46470703 233.6769043 109.48388672 233.70678711 C102.50695874 233.76852983 97.20146326 232.34080512 90.93115234 229.30639648 C91.25277344 229.82500244 91.57439453 230.3436084 91.90576172 230.87792969 C93.93928987 235.69400219 93.38305936 241.19051025 93.41162109 246.35839844 C93.4309425 248.47095227 93.49296379 250.57952904 93.55615234 252.69116211 C93.67277928 260.15981432 93.19292593 265.65289762 88.51904297 271.69824219 C86.93115234 273.30639648 86.93115234 273.30639648 83.93115234 275.30639648 C79.64115234 271.01639648 75.35115234 266.72639648 70.93115234 262.30639648 C71.59115234 260.98639648 72.25115234 259.66639648 72.93115234 258.30639648 C74.5242939 254.7844157 75.29678314 251.86260984 75.43115234 247.99389648 C75.48271484 247.11088867 75.53427734 246.22788086 75.58740234 245.31811523 C73.55172044 235.97578937 63.65414875 228.79738744 57.05615234 222.30639648 C55.974956 221.23525326 54.89422308 220.16364205 53.81396484 219.09155273 C51.191678 216.49108704 48.56318856 213.89699837 45.93115234 211.30639648 C43.74442036 213.33361473 42.30884712 215.18195849 40.99365234 217.85327148 C40.65591797 218.53389648 40.31818359 219.21452148 39.97021484 219.91577148 C39.45587891 220.97538086 39.45587891 220.97538086 38.93115234 222.05639648 C38.41681641 223.09280273 38.41681641 223.09280273 37.89208984 224.15014648 C35.75974785 228.47994016 33.79564171 232.85492813 31.93115234 237.30639648 C31.27115234 237.30639648 30.61115234 237.30639648 29.93115234 237.30639648 C29.93115234 233.67639648 29.93115234 230.04639648 29.93115234 226.30639648 C28.38427734 227.51295898 28.38427734 227.51295898 26.80615234 228.74389648 C23.55987538 231.08438945 20.98212852 232.00998359 16.93115234 232.30639648 C14.22611858 227.32913436 13.39721701 223.57736293 14.14599609 217.93139648 C15.35402896 213.89260005 17.64474031 210.90823214 20.23974609 207.63061523 C23.61297403 202.99534821 24.5106342 199.00463476 23.93115234 193.30639648 C19.67846221 183.37287401 12.48373702 173.67238606 2.93115234 168.30639648 C-4.94875481 166.3758988 -13.10724086 167.19545123 -21.06884766 168.30639648 C-21.72884766 169.95639648 -22.38884766 171.60639648 -23.06884766 173.30639648 C-25.37884766 173.30639648 -27.68884766 173.30639648 -30.06884766 173.30639648 C-29.91544922 172.79592773 -29.76205078 172.28545898 -29.60400391 171.75952148 C-28.89979363 168.53146268 -28.71996562 165.35221648 -28.50634766 162.05639648 C-28.42255859 160.79311523 -28.33876953 159.52983398 -28.25244141 158.22827148 C-28.19185547 157.26405273 -28.13126953 156.29983398 -28.06884766 155.30639648 C-33.26068658 158.19075144 -35.29692802 160.39999771 -37.06884766 166.30639648 C-37.87873636 171.38569845 -37.25393898 175.10836075 -34.39306641 179.52514648 C-30.16924714 185.20674408 -25.44229004 190.00539306 -20.05322266 194.57983398 C-17.44719042 196.84728723 -15.02840703 199.26972375 -12.61181641 201.73608398 C-11.31272991 203.05819227 -9.9760208 204.34318093 -8.63134766 205.61889648 C-7.06884766 207.30639648 -7.06884766 207.30639648 -7.06884766 209.30639648 C-6.07884766 209.63639648 -5.08884766 209.96639648 -4.06884766 210.30639648 C-4.06884766 217.56639648 -4.06884766 224.82639648 -4.06884766 232.30639648 C-15.66690294 229.98678543 -23.83862182 220.00751224 -31.88378906 211.88256836 C-33.81853842 209.93170829 -35.76884873 207.99744467 -37.72119141 206.06420898 C-53.42510002 190.39633983 -53.42510002 190.39633983 -54.65478516 182.58374023 C-54.58517578 181.4815918 -54.51556641 180.37944336 -54.44384766 179.24389648 C-54.38970703 178.11854492 -54.33556641 176.99319336 -54.27978516 175.83374023 C-54.21017578 174.9997168 -54.14056641 174.16569336 -54.06884766 173.30639648 C-56.04884766 173.30639648 -58.02884766 173.30639648 -60.06884766 173.30639648 C-60.56915035 158.20466689 -59.1196827 148.94631702 -48.50634766 137.55639648 C-42.91644777 132.3964889 -38.56975664 130.35336332 -31.22509766 128.43139648 C-27.98785605 127.47922183 -27.98785605 127.47922183 -25.55322266 125.23217773 C-22.5157575 122.87766465 -20.61826006 122.69509689 -16.81884766 122.49389648 C-15.76181641 122.42557617 -14.70478516 122.35725586 -13.61572266 122.28686523 C-11.06884766 122.30639648 -11.06884766 122.30639648 -10.06884766 123.30639648 C-7.06553748 123.44832986 -4.07667631 123.34876027 -1.06884766 123.30639648 C-0.73884766 120.33639648 -0.40884766 117.36639648 -0.06884766 114.30639648 C-1.38884766 113.64639648 -2.70884766 112.98639648 -4.06884766 112.30639648 C-10.82491219 106.06495405 -14.954475 99.29731536 -17.00634766 90.36889648 C-17.73127625 87.11608317 -17.73127625 87.11608317 -20.50634766 86.11889648 C-21.35197266 85.85077148 -22.19759766 85.58264648 -23.06884766 85.30639648 C-25.36035628 82.97669605 -26.02850613 81.63346647 -26.43212891 78.36108398 C-26.41537109 77.31178711 -26.39861328 76.26249023 -26.38134766 75.18139648 C-26.37748047 74.12694336 -26.37361328 73.07249023 -26.36962891 71.98608398 C-26.06884766 69.30639648 -26.06884766 69.30639648 -24.06884766 67.30639648 C-23.6087842 65.10388656 -23.6087842 65.10388656 -23.44384766 62.68139648 C-23.36908203 61.86413086 -23.29431641 61.04686523 -23.21728516 60.20483398 C-23.16830078 59.57834961 -23.11931641 58.95186523 -23.06884766 58.30639648 C-23.62572266 58.38760742 -24.18259766 58.46881836 -24.75634766 58.55249023 C-28.49506428 58.86194482 -31.09701772 58.88850781 -34.37744141 56.92358398 C-37.96863541 53.87930577 -41.1166975 51.06714728 -42.06884766 46.30639648 C-42.25634766 42.55639648 -42.25634766 42.55639648 -42.06884766 39.30639648 C-41.06884766 38.30639648 -41.06884766 38.30639648 -39.30297852 38.19287109 C-38.55411377 38.19810791 -37.80524902 38.20334473 -37.03369141 38.20874023 C-36.22480469 38.21196289 -35.41591797 38.21518555 -34.58251953 38.21850586 C-33.73238281 38.22688477 -32.88224609 38.23526367 -32.00634766 38.24389648 C-31.15234375 38.2484082 -30.29833984 38.25291992 -29.41845703 38.25756836 C-27.30189102 38.26939275 -25.18536081 38.2873288 -23.06884766 38.30639648 C-23.02920898 37.71213867 -22.98957031 37.11788086 -22.94873047 36.50561523 C-22.75628598 33.77098964 -22.53774992 31.03902644 -22.31884766 28.30639648 C-22.22603516 26.90454102 -22.22603516 26.90454102 -22.13134766 25.47436523 C-21.52214499 18.21470007 -19.98295433 12.57338326 -15.06884766 7.06420898 C-14.40884766 6.52538086 -13.74884766 5.98655273 -13.06884766 5.43139648 C-12.40884766 4.87709961 -11.74884766 4.32280273 -11.06884766 3.75170898 C-7.34305346 1.05924052 -4.62089253 0.05557106 0 0 Z " fill="#4F8E48" transform="translate(118.06884765625,67.693603515625)"></path>
<path d="M0 0 C1.51275009 -0.02398109 1.51275009 -0.02398109 3.05606079 -0.04844666 C4.68419205 -0.05649071 4.68419205 -0.05649071 6.34521484 -0.06469727 C7.47003265 -0.07372574 8.59485046 -0.08275421 9.75375366 -0.09205627 C12.13593891 -0.10656482 14.51816406 -0.115447 16.90039062 -0.11914062 C20.52201854 -0.13099182 24.1419175 -0.18013655 27.76318359 -0.23071289 C30.08218573 -0.24018275 32.4011983 -0.24741509 34.72021484 -0.25219727 C36.33012802 -0.28149574 36.33012802 -0.28149574 37.9725647 -0.31138611 C46.82030952 -0.2590467 53.92646073 2.14037164 60.36865234 8.36889648 C63.98305141 13.0145224 64.85817723 18.64047036 65.93115234 24.30639648 C66.21345703 25.57676758 66.21345703 25.57676758 66.50146484 26.87280273 C67.17472489 30.68590279 66.98872291 34.44916858 66.93115234 38.30639648 C68.13513672 38.28319336 69.33912109 38.25999023 70.57958984 38.23608398 C72.15510449 38.21732786 73.73062583 38.19912749 75.30615234 38.18139648 C76.10021484 38.16463867 76.89427734 38.14788086 77.71240234 38.13061523 C79.7860725 38.11304176 81.85998476 38.20304481 83.93115234 38.30639648 C85.93115234 40.30639648 85.93115234 40.30639648 86.24365234 43.61889648 C85.83483242 48.44297164 84.69517765 50.60319963 81.23193359 53.94702148 C77.70851415 56.9097396 75.12789325 58.68973883 70.43115234 58.68139648 C68.69865234 58.49577148 68.69865234 58.49577148 66.93115234 58.30639648 C67.04524828 59.76562341 67.17280778 61.22380246 67.30615234 62.68139648 C67.41056641 63.89956055 67.41056641 63.89956055 67.51708984 65.14233398 C67.76007822 67.50973839 67.76007822 67.50973839 69.93115234 69.30639648 C70.32030705 75.14371703 70.15130913 80.27890996 66.55615234 85.18139648 C64.93115234 86.30639648 64.93115234 86.30639648 60.93115234 86.30639648 C60.83833984 88.25545898 60.83833984 88.25545898 60.74365234 90.24389648 C59.76687494 98.88566323 54.63448846 105.07251747 48.93115234 111.30639648 C48.27115234 110.64639648 47.61115234 109.98639648 46.93115234 109.30639648 C46.61662109 109.89807617 46.30208984 110.48975586 45.97802734 111.09936523 C43.5985061 115.49287885 41.23077187 119.51794444 37.93115234 123.30639648 C37.60115234 121.98639648 37.27115234 120.66639648 36.93115234 119.30639648 C36.11388672 119.62995117 35.29662109 119.95350586 34.45458984 120.28686523 C30.3617579 121.47115474 26.78843549 121.64886287 22.55615234 121.61889648 C21.805354 121.61760742 21.05455566 121.61631836 20.28100586 121.61499023 C14.92082548 121.52169872 10.75674664 120.77052974 5.93115234 118.30639648 C5.60115234 121.27639648 5.27115234 124.24639648 4.93115234 127.30639648 C6.91115234 128.29639648 6.91115234 128.29639648 8.93115234 129.30639648 C11.74660501 131.90366206 14.46125515 134.58598412 17.17724609 137.28686523 C19.72384722 139.58161489 19.72384722 139.58161489 22.62255859 139.25952148 C25.78815255 137.95257576 27.55524547 135.74170103 29.93115234 133.30639648 C32.74365234 131.99389648 32.74365234 131.99389648 34.93115234 131.30639648 C33.82284982 136.75555057 32.83100808 140.14655036 28.93115234 144.30639648 C29.92115234 144.30639648 30.91115234 144.30639648 31.93115234 144.30639648 C31.93115234 146.61639648 31.93115234 148.92639648 31.93115234 151.30639648 C30.77615234 150.95577148 29.62115234 150.60514648 28.43115234 150.24389648 C23.31848724 148.96797655 18.79866745 149.78732081 13.70849609 150.70874023 C8.20093224 151.54951756 3.72034598 151.42250938 -1.06884766 148.30639648 C-3.04407207 146.0905356 -4.47637625 143.83561578 -6.06884766 141.30639648 C-6.72884766 140.97639648 -7.38884766 140.64639648 -8.06884766 140.30639648 C-7.98193027 143.07876142 -7.87507405 145.84786727 -7.75634766 148.61889648 C-7.73378906 149.40458008 -7.71123047 150.19026367 -7.68798828 150.99975586 C-7.65253906 151.75708008 -7.61708984 152.5144043 -7.58056641 153.29467773 C-7.55438232 153.99117432 -7.52819824 154.6876709 -7.5012207 155.40527344 C-6.89827847 158.05638082 -6.38179058 158.81885672 -4.06884766 160.30639648 C-1.20619306 160.6376019 1.45081839 160.7950374 4.31787109 160.81811523 C5.13487991 160.83606644 5.95188873 160.85401764 6.7936554 160.87251282 C9.40193528 160.92667437 12.01003159 160.96052957 14.61865234 160.99389648 C16.38755813 161.02706448 18.15643968 161.06155366 19.92529297 161.09741211 C24.26044707 161.18240394 28.59554619 161.24918684 32.93115234 161.30639648 C33.26115234 164.60639648 33.59115234 167.90639648 33.93115234 171.30639648 C32.61115234 170.31639648 31.29115234 169.32639648 29.93115234 168.30639648 C27.47314751 167.87572294 27.47314751 167.87572294 24.79541016 167.96582031 C23.77465393 167.96604691 22.75389771 167.9662735 21.70220947 167.96650696 C20.60729187 167.98199081 19.51237427 167.99747467 18.38427734 168.01342773 C17.25793884 168.01767258 16.13160034 168.02191742 14.97113037 168.02629089 C11.37422771 168.04308151 7.77788562 168.08073549 4.18115234 168.11889648 C1.74235835 168.13394278 -0.69644442 168.14763128 -3.13525391 168.15991211 C-9.1133097 168.19298633 -15.09103863 168.24319005 -21.06884766 168.30639648 C-21.72884766 169.95639648 -22.38884766 171.60639648 -23.06884766 173.30639648 C-25.37884766 173.30639648 -27.68884766 173.30639648 -30.06884766 173.30639648 C-29.91544922 172.79592773 -29.76205078 172.28545898 -29.60400391 171.75952148 C-28.89979363 168.53146268 -28.71996562 165.35221648 -28.50634766 162.05639648 C-28.42255859 160.79311523 -28.33876953 159.52983398 -28.25244141 158.22827148 C-28.19185547 157.26405273 -28.13126953 156.29983398 -28.06884766 155.30639648 C-33.26068658 158.19075144 -35.29692802 160.39999771 -37.06884766 166.30639648 C-37.87873636 171.38569845 -37.25393898 175.10836075 -34.39306641 179.52514648 C-30.16924714 185.20674408 -25.44229004 190.00539306 -20.05322266 194.57983398 C-17.44719042 196.84728723 -15.02840703 199.26972375 -12.61181641 201.73608398 C-11.31272991 203.05819227 -9.9760208 204.34318093 -8.63134766 205.61889648 C-7.06884766 207.30639648 -7.06884766 207.30639648 -7.06884766 209.30639648 C-6.07884766 209.63639648 -5.08884766 209.96639648 -4.06884766 210.30639648 C-4.06884766 217.56639648 -4.06884766 224.82639648 -4.06884766 232.30639648 C-15.66690294 229.98678543 -23.83862182 220.00751224 -31.88378906 211.88256836 C-33.81853842 209.93170829 -35.76884873 207.99744467 -37.72119141 206.06420898 C-53.42510002 190.39633983 -53.42510002 190.39633983 -54.65478516 182.58374023 C-54.58517578 181.4815918 -54.51556641 180.37944336 -54.44384766 179.24389648 C-54.38970703 178.11854492 -54.33556641 176.99319336 -54.27978516 175.83374023 C-54.21017578 174.9997168 -54.14056641 174.16569336 -54.06884766 173.30639648 C-56.04884766 173.30639648 -58.02884766 173.30639648 -60.06884766 173.30639648 C-60.56915035 158.20466689 -59.1196827 148.94631702 -48.50634766 137.55639648 C-42.91644777 132.3964889 -38.56975664 130.35336332 -31.22509766 128.43139648 C-27.98785605 127.47922183 -27.98785605 127.47922183 -25.55322266 125.23217773 C-22.5157575 122.87766465 -20.61826006 122.69509689 -16.81884766 122.49389648 C-15.76181641 122.42557617 -14.70478516 122.35725586 -13.61572266 122.28686523 C-11.06884766 122.30639648 -11.06884766 122.30639648 -10.06884766 123.30639648 C-7.06553748 123.44832986 -4.07667631 123.34876027 -1.06884766 123.30639648 C-0.73884766 120.33639648 -0.40884766 117.36639648 -0.06884766 114.30639648 C-1.38884766 113.64639648 -2.70884766 112.98639648 -4.06884766 112.30639648 C-10.82491219 106.06495405 -14.954475 99.29731536 -17.00634766 90.36889648 C-17.73127625 87.11608317 -17.73127625 87.11608317 -20.50634766 86.11889648 C-21.35197266 85.85077148 -22.19759766 85.58264648 -23.06884766 85.30639648 C-25.36035628 82.97669605 -26.02850613 81.63346647 -26.43212891 78.36108398 C-26.41537109 77.31178711 -26.39861328 76.26249023 -26.38134766 75.18139648 C-26.37748047 74.12694336 -26.37361328 73.07249023 -26.36962891 71.98608398 C-26.06884766 69.30639648 -26.06884766 69.30639648 -24.06884766 67.30639648 C-23.6087842 65.10388656 -23.6087842 65.10388656 -23.44384766 62.68139648 C-23.36908203 61.86413086 -23.29431641 61.04686523 -23.21728516 60.20483398 C-23.16830078 59.57834961 -23.11931641 58.95186523 -23.06884766 58.30639648 C-23.62572266 58.38760742 -24.18259766 58.46881836 -24.75634766 58.55249023 C-28.49506428 58.86194482 -31.09701772 58.88850781 -34.37744141 56.92358398 C-37.96863541 53.87930577 -41.1166975 51.06714728 -42.06884766 46.30639648 C-42.25634766 42.55639648 -42.25634766 42.55639648 -42.06884766 39.30639648 C-41.06884766 38.30639648 -41.06884766 38.30639648 -39.30297852 38.19287109 C-38.55411377 38.19810791 -37.80524902 38.20334473 -37.03369141 38.20874023 C-36.22480469 38.21196289 -35.41591797 38.21518555 -34.58251953 38.21850586 C-33.73238281 38.22688477 -32.88224609 38.23526367 -32.00634766 38.24389648 C-31.15234375 38.2484082 -30.29833984 38.25291992 -29.41845703 38.25756836 C-27.30189102 38.26939275 -25.18536081 38.2873288 -23.06884766 38.30639648 C-23.02920898 37.71213867 -22.98957031 37.11788086 -22.94873047 36.50561523 C-22.75628598 33.77098964 -22.53774992 31.03902644 -22.31884766 28.30639648 C-22.22603516 26.90454102 -22.22603516 26.90454102 -22.13134766 25.47436523 C-21.52214499 18.21470007 -19.98295433 12.57338326 -15.06884766 7.06420898 C-14.40884766 6.52538086 -13.74884766 5.98655273 -13.06884766 5.43139648 C-12.40884766 4.87709961 -11.74884766 4.32280273 -11.06884766 3.75170898 C-7.34305346 1.05924052 -4.62089253 0.05557106 0 0 Z " fill="#7B5E94" transform="translate(118.06884765625,67.693603515625)"></path>
<path d="M0 0 C0.85355576 -0.00979385 1.70711151 -0.01958771 2.58653259 -0.02967834 C28.94350402 -0.26973396 52.79423982 1.67452825 77.91015625 10.23828125 C78.58240234 10.45677734 79.25464844 10.67527344 79.94726562 10.90039062 C104.65751351 18.95538618 126.57732722 33.11855239 145.91015625 50.23828125 C146.82796875 51.03363281 147.74578125 51.82898437 148.69140625 52.6484375 C153.87935956 57.20352301 158.53492963 61.90433963 162.91015625 67.23828125 C163.33522461 67.74037109 163.76029297 68.24246094 164.19824219 68.75976562 C189.84300247 99.06880969 207.89263346 138.91360103 208.11328125 179.1015625 C208.11898132 179.93302292 208.1246814 180.76448334 208.1305542 181.62113953 C208.13995109 183.37672681 208.14651689 185.1323313 208.15039062 186.88793945 C208.15999095 189.50570772 208.19102086 192.12265323 208.22265625 194.74023438 C208.32099007 210.25246273 206.44304718 225.28312893 202.22265625 240.23828125 C201.96846924 241.14924561 201.71428223 242.06020996 201.45239258 242.9987793 C187.9567299 289.55295838 155.0136413 330.43210513 112.91015625 354.23828125 C112.29269531 354.59341797 111.67523438 354.94855469 111.0390625 355.31445312 C84.69178005 370.36631647 53.4937787 380.26610293 22.984375 380.44140625 C22.16304581 380.44842056 21.34171661 380.45543488 20.49549866 380.46266174 C17.86282802 380.48005547 15.23038222 380.48651299 12.59765625 380.48828125 C11.69865601 380.48895599 10.79965576 380.48963074 9.87341309 380.49032593 C-3.02069207 380.4749244 -15.47410584 380.13179912 -28.08984375 377.23828125 C-28.89115723 377.0666748 -29.6924707 376.89506836 -30.51806641 376.71826172 C-61.62036525 369.99814733 -92.16823484 356.50193361 -116.08984375 335.23828125 C-116.87875 334.55765625 -117.66765625 333.87703125 -118.48046875 333.17578125 C-121.0636753 330.90922583 -123.58368237 328.58983009 -126.08984375 326.23828125 C-126.88479248 325.49433105 -126.88479248 325.49433105 -127.69580078 324.73535156 C-159.59916425 294.62615383 -182.87632261 249.62757127 -184.2668457 205.22265625 C-184.29295051 203.81129152 -184.313138 202.39980782 -184.328125 200.98828125 C-184.33791885 200.22095673 -184.34771271 199.4536322 -184.35780334 198.66305542 C-184.90878865 144.25505703 -167.6837662 96.86217228 -129.71508789 57.52905273 C-96.26521043 23.49301676 -48.17737643 0.45747154 0 0 Z M-26.08984375 12.23828125 C-26.99814941 12.43164062 -27.90645508 12.625 -28.84228516 12.82421875 C-77.156158 23.51115836 -120.67923872 52.67096179 -147.51318359 94.45458984 C-173.44319753 136.01510655 -180.2756794 185.31544615 -169.44750977 232.98876953 C-157.79129604 280.93425613 -127.78042668 319.20902645 -86.11621094 345.04223633 C-56.56675768 362.84581645 -23.12327967 371.45858765 11.22265625 371.48828125 C11.92813599 371.48895599 12.63361572 371.48963074 13.36047363 371.49032593 C25.41666959 371.47210026 37.08556953 370.69474687 48.91015625 368.23828125 C49.73870117 368.0666748 50.56724609 367.89506836 51.42089844 367.71826172 C69.95801741 363.73687283 87.22726918 357.1909323 103.91015625 348.23828125 C105.06773437 347.635 106.2253125 347.03171875 107.41796875 346.41015625 C147.59580853 324.62809277 177.0093513 286.66164044 190.20166016 243.25073242 C190.78723645 241.25070762 191.35422156 239.24674112 191.91015625 237.23828125 C192.09707031 236.5632959 192.28398437 235.88831055 192.4765625 235.19287109 C199.57945793 208.8984986 200.05744445 180.93056871 194.91015625 154.23828125 C194.76562012 153.48756348 194.62108398 152.7368457 194.47216797 151.96337891 C191.08308717 135.01046866 185.09877909 119.42918934 176.91015625 104.23828125 C176.36746094 103.21347656 175.82476562 102.18867187 175.265625 101.1328125 C167.44176321 87.02701789 157.06965487 74.79106617 145.91015625 63.23828125 C145.01103516 62.26181641 145.01103516 62.26181641 144.09375 61.265625 C116.4954314 32.00725716 75.9198257 15.97727835 36.91015625 10.23828125 C36.27078125 10.14256836 35.63140625 10.04685547 34.97265625 9.94824219 C15.24303122 7.35174908 -6.67634373 8.0887161 -26.08984375 12.23828125 Z " fill="#FEFEFD" transform="translate(184.08984375,-0.23828125)"></path>
<path d="M0 0 C0.02699725 2.27076842 0.04639453 4.54162821 0.0625 6.8125 C0.07410156 8.07707031 0.08570312 9.34164062 0.09765625 10.64453125 C0 14 0 14 -1 17 C0.98 17.33 2.96 17.66 5 18 C5.66 16.02 6.32 14.04 7 12 C26.07441191 9.15851007 26.07441191 9.15851007 33.83886719 13.63769531 C42.40684107 20.46335495 51.89120293 30.23842049 53.5 41.5 C52.65591354 47.40860523 50.02071641 51.78284829 46.3125 56.375 C43.21870349 60.54780579 42.81571771 64.89873116 43 70 C43.79123713 73.47518686 43.79123713 73.47518686 45 76 C49.3665774 74.90835565 52.51194222 73.84212116 56 71 C56.66 71 57.32 71 58 71 C58 74.63 58 78.26 58 82 C60.65254717 80.67372642 60.64821715 79.64102993 61.625 76.875 C64.40547741 69.57359367 68.24577694 62.83414393 72 56 C75.74158299 56 76.65840429 57.29854771 79.22705078 59.83586121 C79.77087402 60.3888942 80.31469727 60.94192719 80.875 61.51171875 C81.4407373 62.07695755 82.00647461 62.64219635 82.58935547 63.2245636 C83.78648356 64.42403435 84.97991432 65.62720479 86.16992188 66.83374023 C87.98418378 68.67147911 89.81126661 70.49566127 91.640625 72.31835938 C92.80287582 73.486191 93.96435931 74.65478689 95.125 75.82421875 C95.66882324 76.36713058 96.21264648 76.91004242 96.77294922 77.46940613 C101.35656606 82.13858611 104.43190186 85.75153112 104.375 92.4375 C104.26379788 97.03385427 103.34361874 99.99631799 101 104 C100.56520978 108.10954675 100.56520978 108.10954675 103.40625 110.796875 C104.42751087 111.79160961 105.4592197 112.77570689 106.5 113.75 C107.02464844 114.25660156 107.54929687 114.76320313 108.08984375 115.28515625 C109.38441363 116.53265087 110.6910776 117.76757307 112 119 C109.63291491 124.83715748 104.26260422 126.54482077 98.79296875 128.984375 C89.62756872 132.48539267 81.30256054 131.48594351 72.1171875 128.55859375 C62.59008258 123.79504129 55.19108198 115.56364807 47.74267578 108.11328125 C45.88210017 106.25708347 44.00608318 104.41751301 42.12890625 102.578125 C23.49329686 84.1214244 23.49329686 84.1214244 22.86816406 72.56225586 C22.94115723 71.40028687 22.94115723 71.40028687 23.015625 70.21484375 C23.04914063 69.35439453 23.08265625 68.49394531 23.1171875 67.60742188 C23.20596487 65.82273564 23.31022185 64.03875431 23.4296875 62.25585938 C23.71018849 57.52342012 23.71018849 57.52342012 21.76293945 53.40014648 C19.97870477 51.90044285 19.97870477 51.90044285 17 50 C15.86006234 48.76115234 14.75086572 47.49266464 13.6875 46.1875 C11.13872455 43.18860968 8.47777556 40.57332387 5.5 38 C-1.59216188 31.82607373 -9.26604401 24.77990341 -10.5 15.0625 C-10.19903117 9.53757211 -7.88235361 4.77162693 -3.875 1 C-2 0 -2 0 0 0 Z " fill="#A5CABE" transform="translate(90,223)"></path>
<path d="M0 0 C0.8353125 0.12568359 0.8353125 0.12568359 1.6875 0.25390625 C2.450625 0.35574219 3.21375 0.45757812 4 0.5625 C4.7425 0.66691406 5.485 0.77132813 6.25 0.87890625 C9.20385892 1.00897674 11.97512893 0.66203312 14.8984375 0.26000977 C36.02303624 -2.35357035 54.50976238 4.50621907 72.6875 14.6875 C82.72218769 20.20038398 92.59787517 22.58911262 104 23 C104 23.66 104 24.32 104 25 C100.35851293 26.77987108 96.7110727 28.54720522 93.0625 30.3125 C92.04091797 30.81201172 91.01933594 31.31152344 89.96679688 31.82617188 C84.07469699 34.66868652 78.26295155 37.11204503 72 39 C70.515 39.495 70.515 39.495 69 40 C65.48423579 40.28268039 61.96337015 40.27768232 58.4375 40.3125 C57.00954102 40.35600586 57.00954102 40.35600586 55.55273438 40.40039062 C48.57580639 40.46213335 43.27031092 39.03440864 37 36 C37.32162109 36.51860596 37.64324219 37.03721191 37.97460938 37.5715332 C40.00813752 42.3876057 39.45190702 47.88411377 39.48046875 53.05200195 C39.49979015 55.16455579 39.56181145 57.27313256 39.625 59.38476562 C39.74162694 66.85341784 39.26177358 72.34650114 34.58789062 78.3918457 C33 80 33 80 30 82 C25.71 77.71 21.42 73.42 17 69 C17.66 67.68 18.32 66.36 19 65 C20.59314155 61.47801921 21.3656308 58.55621335 21.5 54.6875 C21.5515625 53.80449219 21.603125 52.92148437 21.65625 52.01171875 C19.57962731 42.48150392 9.35062542 35.12130639 2.625 28.5 C1.49562712 27.38067896 0.36671701 26.26089079 -0.76171875 25.140625 C-3.50250825 22.42166975 -6.24947808 19.70910799 -9 17 C-8.06506561 15.10290012 -7.12693704 13.20737422 -6.1875 11.3125 C-5.66542969 10.25675781 -5.14335937 9.20101563 -4.60546875 8.11328125 C-3.1713272 5.33223304 -1.64396622 2.66095433 0 0 Z " fill="#72AF99" transform="translate(172,261)"></path>
<path d="M0 0 C18.48 0 36.96 0 56 0 C56.495 7.425 56.495 7.425 57 15 C58.65 15 60.3 15 62 15 C62.66 14.34 63.32 13.68 64 13 C67.125 12.875 67.125 12.875 70 13 C70 15.64 70 18.28 70 21 C68.72125 21.268125 67.4425 21.53625 66.125 21.8125 C63.85132439 22.54007559 63.85132439 22.54007559 62 24 C61.07243224 26.7012583 60.79780181 29.25160484 60.46875 32.0859375 C59.24250001 39.70912491 54.09521268 46.43710336 48 51 C38.70796719 56.08755272 30.6088868 58.05489496 20 57 C10.70818891 54.23982052 3.05967303 48.80862254 -1.96484375 40.48828125 C-3.30199078 37.27408254 -3.75060246 34.11896233 -4.3125 30.6875 C-5.00644551 25.91734008 -5.00644551 25.91734008 -7.9609375 22.43359375 C-10.40311816 21.46907787 -10.40311816 21.46907787 -14 21 C-14 18.36 -14 15.72 -14 13 C-11.625 12.875 -11.625 12.875 -9 13 C-8.34 13.66 -7.68 14.32 -7 15 C-5.02 15 -3.04 15 -1 15 C-0.67 10.05 -0.34 5.1 0 0 Z " fill="#A1F441" transform="translate(112,126)"></path>
<path d="M0 0 C3.44237081 0.81492695 6.94112662 0.63654275 10.45922852 0.6184082 C11.20172852 0.62227539 11.94422852 0.62614258 12.70922852 0.63012695 C16.95556323 0.62262459 20.89531317 0.25874699 25.08422852 -0.5065918 C32.30121599 -1.13281688 37.22952568 -0.95616595 43.08422852 3.4934082 C48.50136218 8.18825738 48.93412843 12.76502247 49.72485352 19.76293945 C49.79042156 22.40253106 49.79042156 22.40253106 51.08422852 23.4934082 C51.08422852 26.1334082 51.08422852 28.7734082 51.08422852 31.4934082 C31.28422852 31.8234082 11.48422852 32.1534082 -8.91577148 32.4934082 C-8.91577148 33.8134082 -8.91577148 35.1334082 -8.91577148 36.4934082 C16.82422852 36.8234082 42.56422852 37.1534082 69.08422852 37.4934082 C68.08422852 41.4934082 68.08422852 41.4934082 66.13745117 43.71205139 C61.80753616 46.23827515 58.16266986 46.04648143 53.23266602 45.99511719 C52.24510315 46.00052017 51.25754028 46.00592316 50.24005127 46.01148987 C46.97947106 46.02398506 43.71977244 46.00748028 40.45922852 45.98950195 C38.19148716 45.98965692 35.92374553 45.99114555 33.65600586 45.99391174 C28.90474734 45.9952961 24.15379056 45.9827312 19.40258789 45.95996094 C13.31266059 45.93157655 7.22323467 45.93431331 1.13327026 45.94705105 C-3.54903444 45.95400635 -8.23122327 45.94622058 -12.91351318 45.93379402 C-15.15899206 45.9292781 -17.40448337 45.92894395 -19.64996338 45.93285942 C-22.78830457 45.9357701 -25.92595507 45.91927081 -29.06420898 45.89746094 C-29.99215271 45.90196259 -30.92009644 45.90646423 -31.87615967 45.91110229 C-36.62951786 45.85622323 -40.19673667 45.8014795 -43.91577148 42.4934082 C-44.57577148 40.8434082 -45.23577148 39.1934082 -45.91577148 37.4934082 C-37.33577148 37.1634082 -28.75577148 36.8334082 -19.91577148 36.4934082 C-19.58577148 35.1734082 -19.25577148 33.8534082 -18.91577148 32.4934082 C-21.55577148 32.1634082 -24.19577148 31.8334082 -26.91577148 31.4934082 C-25.55680402 8.67705972 -25.55680402 8.67705972 -19.91577148 3.4934082 C-13.91753299 -1.03587393 -7.34685906 -1.9427466 0 0 Z " fill="#A2F43F" transform="translate(127.915771484375,74.506591796875)"></path>
<path d="M0 0 C0.16240455 3.06463399 0.28104814 6.12064274 0.375 9.1875 C0.45041016 10.48397461 0.45041016 10.48397461 0.52734375 11.80664062 C0.67345105 18.16230807 0.67345105 18.16230807 -1.29638672 20.61254883 C-2.80248637 21.82286458 -4.39985356 22.91707261 -6 24 C-8.7912472 28.93120339 -9.9736809 33.42346394 -9 39 C-5.30265063 47.28206258 1.18695531 53.47700857 8.015625 59.2734375 C10.62165724 61.54089074 13.04044062 63.96332727 15.45703125 66.4296875 C16.75611775 67.75179578 18.09282685 69.03678445 19.4375 70.3125 C21 72 21 72 21 74 C21.99 74.33 22.98 74.66 24 75 C24 82.26 24 89.52 24 97 C12.40194472 94.68038894 4.23022583 84.70111576 -3.81494141 76.57617188 C-5.74969077 74.62531181 -7.70000108 72.69104818 -9.65234375 70.7578125 C-26.08935761 54.3724543 -26.08935761 54.3724543 -26.7265625 44.34765625 C-26.72392985 41.91903629 -26.68939701 39.49026746 -26.625 37.0625 C-26.63144531 35.85142578 -26.63789062 34.64035156 -26.64453125 33.39257812 C-26.51670298 22.66081355 -24.22661106 14.56246783 -16.80078125 6.69140625 C-11.53111794 1.74180925 -7.18747763 -0.04720839 0 0 Z " fill="#3C9380" transform="translate(90,203)"></path>
<path d="M0 0 C6.26299101 5.1816735 12.00260466 10.81909037 17.75 16.5625 C18.70432704 17.50465864 19.6587535 18.44671659 20.61328125 19.38867188 C21.97259766 20.74508789 21.97259766 20.74508789 23.359375 22.12890625 C24.17889648 22.94431885 24.99841797 23.75973145 25.84277344 24.59985352 C30.53760792 29.82336164 31.4974731 33.47043655 31.28515625 40.34765625 C30.63305418 46.41309879 27.52034967 50.12541457 23 54 C18.73140758 56.49001225 13.82515932 56.73684699 9 56 C2.88680948 53.77780769 -0.96975823 49.33552747 -5.375 44.75 C-10.17101715 39.80734204 -14.96622213 35.02120176 -20.26025391 30.6081543 C-23.02332535 28.05407746 -24.94797562 25.14216233 -27 22 C-23 20 -19 18 -15 16 C-15 19.63 -15 23.26 -15 27 C-12.34745283 25.67372642 -12.35178285 24.64102993 -11.375 21.875 C-9.5235074 17.02451179 -7.26401064 12.50369746 -4.8125 7.9375 C-4.27665283 6.93662354 -4.27665283 6.93662354 -3.72998047 5.91552734 C-1.14605231 1.14605231 -1.14605231 1.14605231 0 0 Z " fill="#A5F637" transform="translate(163,278)"></path>
<path d="M0 0 C0.02699725 2.27076842 0.04639453 4.54162821 0.0625 6.8125 C0.07410156 8.07707031 0.08570312 9.34164062 0.09765625 10.64453125 C0 14 0 14 -1 17 C0.98 17.33 2.96 17.66 5 18 C5.66 16.02 6.32 14.04 7 12 C26.27985735 9.12790513 26.27985735 9.12790513 33.90332031 13.76660156 C39.63300502 18.52578593 44.46595975 24.10783709 49 30 C47.64394218 32.71211563 46.19468163 32.92110085 43.4375 34.125 C34.0007429 38.74901098 29.0601797 45.47419378 25 55 C21.44504486 54.43828631 20.10163615 53.3429979 17.875 50.5625 C13.55841584 45.39004139 8.79462588 40.72525027 4 36 C0.82918079 32.86332807 -2.26552301 29.68981986 -5.25 26.375 C-6.27867188 25.24191406 -6.27867188 25.24191406 -7.328125 24.0859375 C-10.04759951 20.69294828 -10.34042885 17.47499111 -10.28515625 13.1953125 C-9.65624158 8.35353109 -7.3998484 4.31750437 -3.875 1 C-2 0 -2 0 0 0 Z " fill="#ADF73A" transform="translate(90,223)"></path>
<path d="M0 0 C-0.12552246 0.54527344 -0.25104492 1.09054688 -0.38037109 1.65234375 C-5.37796218 23.69638361 -8.32601363 46.60337451 0.30541992 68.17504883 C1.46933078 71.23312744 2 73.722255 2 77 C0.0625 79.75 0.0625 79.75 -1.33984375 81.2109375 C-7.99840214 88.38651337 -13.70586174 97.19895087 -18 106 C-18.66 106 -19.32 106 -20 106 C-20.01981934 105.24493164 -20.03963867 104.48986328 -20.06005859 103.71191406 C-20.15649239 100.22431407 -20.26568279 96.73721903 -20.375 93.25 C-20.4059375 92.06277344 -20.436875 90.87554687 -20.46875 89.65234375 C-20.6909205 82.87614351 -21.34545935 76.42736962 -22.55908203 69.76074219 C-23.21407967 65.65957206 -23.30043864 61.64545279 -23.25 57.5 C-23.24250732 56.66339844 -23.23501465 55.82679688 -23.22729492 54.96484375 C-23.12168393 48.63054444 -22.81519624 42.31497667 -22.3125 36 C-22.25932617 35.15759766 -22.20615234 34.31519531 -22.15136719 33.44726562 C-21.59612761 27.57759009 -21.59612761 27.57759009 -18.61328125 24.6875 C-17.75089844 24.130625 -16.88851562 23.57375 -16 23 C-11.0861516 17.38417325 -9.13663753 11.80610219 -7.93359375 4.50390625 C-7 2 -7 2 -4.53515625 0.65234375 C-2 0 -2 0 0 0 Z " fill="#84BD68" transform="translate(186,152)"></path>
<path d="M0 0 C0.9178125 0.20625 1.835625 0.4125 2.78125 0.625 C9.04834528 2.14012194 13.74632028 4.3224242 19 8 C19.70640625 8.43054688 20.4128125 8.86109375 21.140625 9.3046875 C28.9500955 14.13782134 36.74297976 20.2260422 40 29 C10.15110119 29.83385771 10.15110119 29.83385771 0 25 C-0.9075 24.5875 -1.815 24.175 -2.75 23.75 C-8.79980414 20.72509793 -13.89639327 16.82359572 -19.14428711 12.62060547 C-24.0882518 8.743189 -29.20914991 6.32020705 -35 4 C-36.34006629 3.34697277 -37.67596634 2.68495044 -39 2 C-38.34 2 -37.68 2 -37 2 C-37 1.34 -37 0.68 -37 0 C-25.61138495 -3.79620502 -11.48414627 -2.9073788 0 0 Z " fill="#77AD6A" transform="translate(277,182)"></path>
<path d="M0 0 C11.69907935 -0.64994885 21.43828144 3.6160258 30.4375 11 C41.28807915 19.4687447 53.05303156 22.55218156 66.625 22.3125 C67.66390381 22.30412109 68.70280762 22.29574219 69.77319336 22.28710938 C77.41682172 22.16930667 84.88025434 21.53398124 92.44140625 20.4375 C95.99938873 20.00007515 99.41924215 19.92626496 103 20 C98.45231522 23.58920707 93.41151442 25.97834706 88.25 28.5625 C87.28578125 29.05685547 86.3215625 29.55121094 85.328125 30.06054688 C72.3134418 36.59441297 56.92675837 39.02019314 42.6171875 34.9375 C30.15804099 30.60022871 21.03482262 22.54264128 12.5078125 12.83203125 C10.09773035 10.11036527 7.59344401 7.54613409 5 5 C3.33333333 3.33333333 1.66666667 1.66666667 0 0 Z " fill="#4B8946" transform="translate(172,265)"></path>
<path d="M0 0 C0.8353125 0.12568359 0.8353125 0.12568359 1.6875 0.25390625 C2.450625 0.35574219 3.21375 0.45757812 4 0.5625 C4.7425 0.66691406 5.485 0.77132813 6.25 0.87890625 C9.20385892 1.00897674 11.97512893 0.66203312 14.8984375 0.26000977 C36.02303624 -2.35357035 54.50976238 4.50621907 72.6875 14.6875 C82.72218769 20.20038398 92.59787517 22.58911262 104 23 C103.67 23.66 103.34 24.32 103 25 C99.9375 25.37890625 99.9375 25.37890625 96 25.5625 C91.88345279 25.76583751 87.8314531 26.0004454 83.7421875 26.51171875 C78.20632756 27.15179514 72.69311769 27.22184264 67.125 27.25 C65.60712891 27.2809375 65.60712891 27.2809375 64.05859375 27.3125 C54.61542729 27.36086449 46.06987366 25.75813802 37.9375 20.75 C36.44669922 19.83734375 36.44669922 19.83734375 34.92578125 18.90625 C31.27518393 16.52775669 27.72109415 14.03018167 24.171875 11.50390625 C15.874388 5.75834421 7.82328176 4.63766584 -2 5 C-1.34 3.35 -0.68 1.7 0 0 Z " fill="#7DB569" transform="translate(172,261)"></path>
<path d="M0 0 C4.45827926 -0.0578304 8.9164628 -0.09353855 13.375 -0.125 C15.28152344 -0.15013672 15.28152344 -0.15013672 17.2265625 -0.17578125 C18.43828125 -0.18222656 19.65 -0.18867188 20.8984375 -0.1953125 C22.01911621 -0.20578613 23.13979492 -0.21625977 24.29443359 -0.22705078 C27 0 27 0 29 2 C29 2.99 29 3.98 29 5 C29.99 5.33 30.98 5.66 32 6 C36.12625175 12.67104125 41.34940833 21.30464072 41.6484375 29.296875 C40.33153363 34.78661885 37.16258871 39.51576797 34.19921875 44.265625 C32.26572191 47.39459369 31.00012762 50.44153487 30 54 C26.52224821 52.48446596 24.0442016 50.4226544 21.25 47.875 C20.45078125 47.15054688 19.6515625 46.42609375 18.828125 45.6796875 C17.92320312 44.84824219 17.92320312 44.84824219 17 44 C17.60880381 41.28698106 18.35350719 39.25056476 19.5625 36.6875 C21.698264 31.20880105 21.72789788 27.80149925 19.51953125 22.3359375 C16.75619812 16.99341134 12.56681417 13.16812675 8.25 9.0625 C6.69084189 7.55531383 5.13344328 6.04630456 3.578125 4.53515625 C2.89137695 3.879104 2.20462891 3.22305176 1.49707031 2.54711914 C0 1 0 1 0 0 Z " fill="#12724E" transform="translate(121,235)"></path>
<path d="M0 0 C2.69651428 1.01402533 3.81056399 1.66965634 5.265625 4.20703125 C5.59046875 5.06683594 5.9153125 5.92664063 6.25 6.8125 C6.58515625 7.66457031 6.9203125 8.51664063 7.265625 9.39453125 C8.01711191 12.06071086 8.13846545 14.24552666 8 17 C9.65 17 11.3 17 13 17 C13 15.02 13 13.04 13 11 C13.33 11 13.66 11 14 11 C14 13.31 14 15.62 14 18 C14.78761719 18.01417969 15.57523438 18.02835938 16.38671875 18.04296875 C29.37295601 18.61159689 38.95945908 23.08918405 49.796875 30 C57.20953028 34.62838964 64.1422476 38.65931722 73 39 C73 39.33 73 39.66 73 40 C35.40391382 40.69961225 35.40391382 40.69961225 20 28 C17.70465742 26.86454438 17.70465742 26.86454438 15 26 C14.31679687 25.76410156 13.63359375 25.52820313 12.9296875 25.28515625 C11.36987634 24.75376296 9.80587006 24.23455364 8.23828125 23.7265625 C6.42064278 23.13654373 4.61455718 22.51102018 2.8125 21.875 C-3.05782754 20.52771171 -8.99691867 20.31638986 -15 20 C-14.4081802 16.83296429 -13.46412704 15.03088578 -11.34765625 12.6171875 C-10.81849609 12.00746094 -10.28933594 11.39773437 -9.74414062 10.76953125 C-9.18919922 10.14433594 -8.63425781 9.51914063 -8.0625 8.875 C-7.51142578 8.24207031 -6.96035156 7.60914063 -6.39257812 6.95703125 C-4.31220749 4.57585368 -2.23643169 2.23643169 0 0 Z " fill="#7CB46B" transform="translate(208,214)"></path>
<path d="M0 0 C0.66 0 1.32 0 2 0 C2.10022461 0.6391333 2.20044922 1.2782666 2.30371094 1.93676758 C4.56425712 17.03752495 4.56425712 17.03752495 9.1171875 31.546875 C12.38225348 40.61971321 12.28029218 50.48563781 12 60 C13.1446875 60.433125 13.1446875 60.433125 14.3125 60.875 C17 62 17 62 20 64 C18.55346952 67.26754346 16.73585977 69.57369938 14.3125 72.1875 C10.76762367 76.07459573 7.55998476 80.11025329 4.4453125 84.34765625 C3.96835938 84.89292969 3.49140625 85.43820313 3 86 C2.34 86 1.68 86 1 86 C-0.75252427 74.41943875 -1.28532603 63.13950185 -1.1875 51.4375 C-1.18061162 49.74080553 -1.17410691 48.04410946 -1.16796875 46.34741211 C-1.08844813 30.88887692 -0.63669303 15.44488604 0 0 Z " fill="#7CB768" transform="translate(188,139)"></path>
<path d="M0 0 C8.69821697 -0.37879332 16.73832134 0.02306455 25 3 C25.66 3.66 26.32 4.32 27 5 C27.763125 5.28875 28.52625 5.5775 29.3125 5.875 C32 7 32 7 34.328125 8.90625 C48.46509074 19.98434011 69.01646267 18.46007364 86 19 C80.20289853 25.95652177 69.12265258 27.71599481 60.44140625 28.52734375 C42.33623745 29.51999901 30.32265802 22.07687339 16.39453125 11.296875 C12.08084883 7.98393723 7.73186519 5.39579908 2.8359375 3.015625 C1 2 1 2 0 0 Z " fill="#48854C" transform="translate(197,235)"></path>
<path d="M0 0 C-3.43395355 5.07627916 -7.84348741 7.89231879 -13 11 C-13.61746094 11.37253906 -14.23492187 11.74507812 -14.87109375 12.12890625 C-28.5165794 19.61191451 -44.28223814 21.31221767 -59.2109375 17.046875 C-66.12627291 14.45120288 -72.18444698 10.61814519 -77 5 C-77 4.67 -77 4.34 -77 4 C-76.31421875 4.0721875 -75.6284375 4.144375 -74.921875 4.21875 C-49.16406646 6.50269361 -24.94480746 -0.47065674 0 0 Z " fill="#46824D" transform="translate(349,158)"></path>
<path d="M0 0 C0.89912109 -0.02449219 1.79824219 -0.04898438 2.72460938 -0.07421875 C9.26529076 -0.10259481 13.95939609 1.27340408 19.6875 4.375 C20.77417969 4.95121094 21.86085938 5.52742187 22.98046875 6.12109375 C23.93566406 6.67925781 24.89085937 7.23742187 25.875 7.8125 C26.83792969 8.36808594 27.80085938 8.92367187 28.79296875 9.49609375 C31.6875 11.375 31.6875 11.375 34.6484375 13.84765625 C44.12602044 21.72939939 55.0080624 25.97258681 66.6875 29.375 C66.3575 30.035 66.0275 30.695 65.6875 31.375 C46.79613493 31.1601034 32.79936893 28.84643739 17.23950195 17.76513672 C10.69040135 13.15366112 4.38081081 10.54943649 -3.3125 8.375 C-4.3025 8.045 -5.2925 7.715 -6.3125 7.375 C-8.70504576 7.14939324 -11.10178123 6.96651405 -13.5 6.8125 C-14.77230469 6.72871094 -16.04460937 6.64492187 -17.35546875 6.55859375 C-18.33128906 6.49800781 -19.30710938 6.43742188 -20.3125 6.375 C-14.67906312 -0.12511947 -8.04697413 0.01138991 0 0 Z " fill="#7AB26B" transform="translate(235.3125,200.625)"></path>
<path d="M0 0 C-1.34248575 3.04033538 -2.7854421 4.91577918 -5.25 7.125 C-8.04277034 9.82008084 -9.9748246 12.43146165 -11.875 15.8125 C-20.0505664 30.06010511 -32.09967312 38.12222317 -47.625 42.7890625 C-51.51438087 43.7486137 -54.11132667 44.19785027 -58 43 C-55.99038178 38.60013151 -53.08969444 35.74570532 -49.6875 32.375 C-48.75079468 31.4456665 -48.75079468 31.4456665 -47.79516602 30.49755859 C-36.77862864 19.75195385 -22.68226239 7.12640846 -7 5 C-7 4.34 -7 3.68 -7 3 C-7.66 2.34 -8.32 1.68 -9 1 C-5.846632 0.29925156 -3.27275026 0 0 0 Z " fill="#75AB6B" transform="translate(350,100)"></path>
<path d="M0 0 C14.13286932 0.21237918 23.76840999 3.43460932 35.3515625 11.75830078 C39.7266775 14.88808938 43.93190141 17.22661559 49 19 C49.75667969 19.28488281 50.51335937 19.56976563 51.29296875 19.86328125 C60.55531346 22.89328859 70.34585438 22.72578822 80 23 C72.99439532 28.71315352 64.40153034 29.56416899 55.625 29.5 C54.2486438 29.49141968 54.2486438 29.49141968 52.84448242 29.48266602 C40.75479511 29.16533176 32.44785256 24.1449385 23 17 C21.14814468 15.64267423 19.293927 14.28856632 17.4375 12.9375 C16.07431641 11.94363281 16.07431641 11.94363281 14.68359375 10.9296875 C7.7506563 5.7030012 7.7506563 5.7030012 0 2 C0 1.34 0 0.68 0 0 Z " fill="#46834A" transform="translate(221,208)"></path>
<path d="M0 0 C0.33 0 0.66 0 1 0 C1.01417969 0.59683594 1.02835938 1.19367188 1.04296875 1.80859375 C1.43030896 8.85399819 3.03064893 15.13371734 5.18432617 21.80834961 C9.94474372 36.81221284 9.26726719 53.43260259 2.90234375 67.84375 C1.92926382 69.96523773 1.92926382 69.96523773 1.56640625 72.21875 C1.28603516 73.10046875 1.28603516 73.10046875 1 74 C-0.485 74.495 -0.485 74.495 -2 75 C-2.31642465 73.500823 -2.62788849 72.00059887 -2.9375 70.5 C-3.11152344 69.6646875 -3.28554687 68.829375 -3.46484375 67.96875 C-7.25815783 46.92554778 -7.65364581 20.30767355 0 0 Z " fill="#7FB66B" transform="translate(219,119)"></path>
<path d="M0 0 C0.33 0 0.66 0 1 0 C0.48099633 4.87863452 -0.642428 9.129852 -2.23828125 13.76171875 C-7.36230337 28.81846068 -6.12635889 45.12610654 -6.0625 60.8125 C-6.05747453 62.9694 -6.05291348 65.12630114 -6.04882812 67.28320312 C-6.03790651 72.52216053 -6.02125158 77.76107484 -6 83 C-15.03417635 74.19577184 -17.18265934 63.15765143 -17.42114258 50.9309082 C-17.42654053 49.8812085 -17.43193848 48.83150879 -17.4375 47.75 C-17.44740967 46.74477295 -17.45731934 45.7395459 -17.4675293 44.70385742 C-17.30601757 30.57100026 -10.26382469 10.26382469 0 0 Z " fill="#48854B" transform="translate(221,110)"></path>
<path d="M0 0 C1 3 1 3 -0.34765625 5.78125 C-3.04627653 11.62902683 -2.9424815 18.17005774 -3.4375 24.5 C-4.59989192 37.78780928 -5.7310076 50.59428889 -12.91015625 62.203125 C-14.14350021 64.10824074 -14.14350021 64.10824074 -15.0625 66.875 C-16.22677724 69.5140284 -17.54232693 70.54075662 -20 72 C-20.66 72 -21.32 72 -22 72 C-21.8562497 69.56236201 -21.71002168 67.1249105 -21.5625 64.6875 C-21.52318359 64.01654297 -21.48386719 63.34558594 -21.44335938 62.65429688 C-21.35608798 61.22438862 -21.26238722 59.79486282 -21.16333008 58.36572266 C-21.04865832 56.70478196 -20.94817189 55.04283025 -20.8581543 53.38037109 C-20.39882549 46.59578957 -18.93036506 40.65415558 -16.6875 34.25 C-16.39166016 33.35667969 -16.09582031 32.46335938 -15.79101562 31.54296875 C-14.00288892 26.29831203 -11.87387174 21.73271644 -9 17 C-8.32650839 15.33607955 -7.6590841 13.66967972 -7 12 C-6.46375 11.13375 -5.9275 10.2675 -5.375 9.375 C-3.74948186 7.02467224 -3.74948186 7.02467224 -4 4 C-2 1.8125 -2 1.8125 0 0 Z " fill="#7BB26B" transform="translate(259,104)"></path>
<path d="M0 0 C2.08193469 0.02374179 4.16259134 0.02051247 6.24462891 0.01391602 C13.18722117 0.02914721 19.80072465 0.44109054 26.60595703 1.86181641 C29.77083657 2.50184148 32.92001472 2.75349484 36.13916016 2.96118164 C37.80011719 3.07333008 37.80011719 3.07333008 39.49462891 3.18774414 C40.30544922 3.23672852 41.11626953 3.28571289 41.95166016 3.33618164 C41.95166016 3.66618164 41.95166016 3.99618164 41.95166016 4.33618164 C38.38955059 4.9634197 34.82690032 5.58753625 31.26416016 6.21118164 C29.78206055 6.4722168 29.78206055 6.4722168 28.27001953 6.73852539 C25.16553842 7.28105607 22.05876322 7.80889395 18.95166016 8.33618164 C17.90067139 8.52365967 16.84968262 8.7111377 15.7668457 8.90429688 C7.85277633 10.24360092 0.16036584 10.68426226 -7.86083984 10.64868164 C-9.07610352 10.64739258 -10.29136719 10.64610352 -11.54345703 10.64477539 C-20.68133947 10.54738256 -29.20103884 9.64417321 -38.04833984 7.33618164 C-35.37598242 4.29131379 -33.53649753 3.99712514 -29.51123047 3.64941406 C-26.67128605 3.28822763 -24.0323285 2.56508863 -21.26708984 1.82446289 C-14.13659717 0.15170517 -7.27154613 -0.08842612 0 0 Z " fill="#7AB16B" transform="translate(308.04833984375,153.663818359375)"></path>
<path d="M0 0 C12.62840116 -1.02623576 26.71816611 3.51287503 36.73046875 11.35546875 C37.19066406 11.77441406 37.65085937 12.19335938 38.125 12.625 C42.04106286 15.86000845 46.2687966 17.28297056 51 19 C51.78632813 19.33386719 52.57265625 19.66773438 53.3828125 20.01171875 C56.48452012 21.18296058 59.57695303 21.90598956 62.8125 22.625 C63.97394531 22.88539063 65.13539063 23.14578125 66.33203125 23.4140625 C67.65267578 23.70410156 67.65267578 23.70410156 69 24 C69 24.33 69 24.66 69 25 C64.87513789 25.08813808 60.75052261 25.14077078 56.625 25.1875 C55.46871094 25.21263672 54.31242187 25.23777344 53.12109375 25.26367188 C37.24575946 25.39820861 25.9027952 19.30834307 13.72460938 9.62524414 C9.3935771 6.2078298 4.94552285 3.42803448 0 1 C0 0.67 0 0.34 0 0 Z " fill="#47834B" transform="translate(244,185)"></path>
<path d="M0 0 C0.66 0.33 1.32 0.66 2 1 C1.401875 1.845625 0.80375 2.69125 0.1875 3.5625 C-2.00586378 6.86408969 -3.54439636 10.32423324 -5 14 C-5.29648438 14.70640625 -5.59296875 15.4128125 -5.8984375 16.140625 C-12.35926474 31.74998362 -16.49639062 47.15957494 -18 64 C-23.47856053 58.52143947 -24.13009359 50.38487024 -24.375 43 C-24.23308081 30.55368721 -19.28153137 20.9739671 -11 12 C-10.01230907 10.9068927 -9.0253715 9.81310438 -8.0390625 8.71875 C-5.38439517 5.7886705 -2.69986217 2.88845549 0 0 Z " fill="#48864A" transform="translate(254,110)"></path>
<path d="M0 0 C2.76276177 0.52268466 5.3260876 1.10869587 8 2 C10.7813654 2.09719057 13.53185227 2.13917492 16.3125 2.125 C17.43301758 2.13080078 17.43301758 2.13080078 18.57617188 2.13671875 C22.82759858 2.12925356 26.81297691 1.83873595 31 1 C31.9140625 4.03125 31.9140625 4.03125 32 8 C30.22270258 10.94756548 27.87282987 13.1548974 25.375 15.5 C24.74464844 16.14453125 24.11429688 16.7890625 23.46484375 17.453125 C18.8794484 21.91459075 18.8794484 21.91459075 15.42578125 22.25 C12.05773679 20.51445374 9.49130076 18.12913202 6.8125 15.5 C3.21492953 11.83450879 3.21492953 11.83450879 -1 9 C-0.67 6.03 -0.34 3.06 0 0 Z " fill="#A8F53A" transform="translate(124,186)"></path>
<path d="M0 0 C0.99 0 1.98 0 3 0 C2.81662966 16.41998062 0.8640493 29.79281297 -8 44 C-8.515625 44.94875 -9.03125 45.8975 -9.5625 46.875 C-11.12378917 49.18299269 -12.65501665 50.51484388 -15 52 C-15.33 52 -15.66 52 -16 52 C-15.4449928 43.49962653 -14.70693257 35.12079772 -12 27 C-11.34 27 -10.68 27 -10 27 C-9.814375 25.80375 -9.62875 24.6075 -9.4375 23.375 C-8.43487372 18.78633812 -6.60044499 14.73757144 -4.5 10.5625 C-4.19118896 9.94745605 -3.88237793 9.33241211 -3.56420898 8.69873047 C-2.23490514 6.12590738 -1.06001131 4.06001131 1 2 C0.67 1.34 0.34 0.68 0 0 Z " fill="#76AB6C" transform="translate(284,101)"></path>
<path d="M0 0 C-0.18937134 0.81138428 -0.18937134 0.81138428 -0.38256836 1.63916016 C-1.65133851 7.19218989 -2.68821409 12.74718067 -3.5625 18.375 C-3.75646362 19.61020386 -3.75646362 19.61020386 -3.9543457 20.87036133 C-4.88055983 26.90230858 -5.55878627 32.91125057 -6 39 C-12.435 39.495 -12.435 39.495 -19 40 C-19.9375 26.20535714 -19.9375 26.20535714 -15.6875 21 C-14.46567595 19.65993491 -13.23735522 18.32573773 -12 17 C-9.81680039 13.38642824 -8.84989004 10.35117971 -8.125 6.25 C-7.6640625 3.92578125 -7.6640625 3.92578125 -7 2 C-4.42747161 0.39216975 -2.9893915 0 0 0 Z " fill="#A9F23E" transform="translate(186,152)"></path>
<path d="M0 0 C-0.66 0.33 -1.32 0.66 -2 1 C-2 1.66 -2 2.32 -2 3 C-5 5 -5 5 -7.9375 5.6875 C-23.88016108 10.13815955 -37.91499927 24.40896346 -49.05859375 36.05078125 C-49.69925781 36.69402344 -50.33992188 37.33726562 -51 38 C-51.33 38 -51.66 38 -52 38 C-52.57200253 30.0503322 -48.14118018 25.07071309 -43.46875 19.015625 C-33.49997473 7.92790557 -14.71147907 -0.34212742 0 0 Z " fill="#45824B" transform="translate(345,102)"></path>
<path d="M0 0 C3 1 3 1 4.8125 4.375 C6.7305478 7.26664653 7.699544 7.92178367 11.12109375 8.8125 C12.31863281 8.998125 13.51617187 9.18375 14.75 9.375 C22.41709941 10.63401843 26.3792755 13.86348228 31 20 C31 20.33 31 20.66 31 21 C26.58355402 21.11608127 22.16749983 21.1872132 17.75 21.25 C15.86861328 21.30027344 15.86861328 21.30027344 13.94921875 21.3515625 C12.14130859 21.37089844 12.14130859 21.37089844 10.296875 21.390625 C9.18666992 21.41157227 8.07646484 21.43251953 6.93261719 21.45410156 C4 21 4 21 1.63085938 19.23242188 C-0.14252321 16.80490535 -0.48000188 15.84006195 -0.390625 12.890625 C-0.37773438 12.13652344 -0.36484375 11.38242188 -0.3515625 10.60546875 C-0.31804687 9.82816406 -0.28453125 9.05085937 -0.25 8.25 C-0.23195313 7.45722656 -0.21390625 6.66445312 -0.1953125 5.84765625 C-0.14833082 3.89791652 -0.07659044 1.94880122 0 0 Z " fill="#14724B" transform="translate(110,208)"></path>
<path d="M0 0 C3.54204372 3.31352477 4.8302407 5.26845509 5.3125 10.1875 C4.92949756 14.86012971 3.32659819 18.00115935 1 22 C-2 22 -2 22 -4.15625 20.1015625 C-4.9296875 19.28429687 -5.703125 18.46703125 -6.5 17.625 C-8.95445623 15.04782096 -11.02895183 12.98069878 -14 11 C-12.55366256 7.39588346 -10.80863332 5.88597432 -7.5625 3.8125 C-6.78003906 3.30332031 -5.99757812 2.79414063 -5.19140625 2.26953125 C-3 1 -3 1 0 0 Z " fill="#88C8A1" transform="translate(138,254)"></path>
<path d="M0 0 C0.14515677 3.10367497 0.23400853 6.20648027 0.3125 9.3125 C0.35439453 10.19357422 0.39628906 11.07464844 0.43945312 11.98242188 C0.48579382 14.41994228 0.48611344 16.60970257 0 19 C-2.51953125 21.10546875 -2.51953125 21.10546875 -5 22 C-7.03660426 20.09797311 -9.05331336 18.18061509 -11.0625 16.25 C-11.93358398 15.44175781 -11.93358398 15.44175781 -12.82226562 14.6171875 C-14.47265625 13.015625 -14.47265625 13.015625 -17 10 C-16.69708912 7.44812431 -16.36379928 6.35425074 -14.51171875 4.55078125 C-13.60873047 3.93783203 -13.60873047 3.93783203 -12.6875 3.3125 C-11.79611328 2.68794922 -11.79611328 2.68794922 -10.88671875 2.05078125 C-7.28498218 0.04484515 -4.07742738 -0.11326187 0 0 Z " fill="#0F6642" transform="translate(90,203)"></path>
<path d="M0 0 C1.1725131 0.95117134 2.33787015 1.91117009 3.5 2.875 C4.1496875 3.40867187 4.799375 3.94234375 5.46875 4.4921875 C6.22671875 5.23855469 6.22671875 5.23855469 7 6 C7 6.66 7 7.32 7 8 C7.639375 8.226875 8.27875 8.45375 8.9375 8.6875 C11 10 11 10 12.0625 12.3125 C12 15 12 15 10 17.625 C6.62926695 20.29349699 4.06480584 21.64506472 0 23 C-3 22 -3 22 -4.25 19.5625 C-5.35246528 14.32578994 -5.43122773 8.93198878 -3.03515625 4.0234375 C-1.9375 2.375 -1.9375 2.375 0 0 Z " fill="#3E9F7D" transform="translate(137,277)"></path>
<path d="M0 0 C0.99 0.33 1.98 0.66 3 1 C2.34 1 1.68 1 1 1 C1.08691739 3.77236494 1.19377361 6.54147078 1.3125 9.3125 C1.33505859 10.09818359 1.35761719 10.88386719 1.38085938 11.69335938 C1.41630859 12.45068359 1.45175781 13.20800781 1.48828125 13.98828125 C1.51446533 14.68477783 1.54064941 15.38127441 1.56762695 16.09887695 C2.17056919 18.74998434 2.68705708 19.51246024 5 21 C7.8626546 21.33120542 10.51966604 21.48864092 13.38671875 21.51171875 C14.20372757 21.52966995 15.02073639 21.54762115 15.86250305 21.56611633 C18.47078294 21.62027788 21.07887925 21.65413308 23.6875 21.6875 C25.45640579 21.72066799 27.22528733 21.75515717 28.99414062 21.79101562 C33.32929473 21.87600746 37.66439384 21.94279035 42 22 C42.495 26.95 42.495 26.95 43 32 C42.33395752 31.35256836 41.66791504 30.70513672 40.98168945 30.03808594 C37.36015704 27.56264562 34.53064944 27.39810541 30.29296875 27.390625 C29.56757401 27.37408875 28.84217926 27.35755249 28.09480286 27.34051514 C25.79228127 27.29217523 23.49041934 27.27069715 21.1875 27.25 C19.62040977 27.22182832 18.05335008 27.1918992 16.48632812 27.16015625 C12.65760645 27.08642109 8.82924794 27.03676179 5 27 C5 26.01 5 25.02 5 24 C4.360625 23.855625 3.72125 23.71125 3.0625 23.5625 C1 23 1 23 0 22 C-0.08700342 20.36527118 -0.10701063 18.72685945 -0.09765625 17.08984375 C-0.09443359 16.10048828 -0.09121094 15.11113281 -0.08789062 14.09179688 C-0.07951172 13.05087891 -0.07113281 12.00996094 -0.0625 10.9375 C-0.05798828 9.89271484 -0.05347656 8.84792969 -0.04882812 7.77148438 C-0.03699913 5.1809334 -0.02051689 2.59049441 0 0 Z " fill="#8A6793" transform="translate(109,207)"></path>
<path d="M0 0 C2.93576279 1.012332 3.97512741 1.96357942 5.75 4.5625 C7 8 7 8 7 17 C-3.395 17.99 -3.395 17.99 -14 19 C-12.90867899 14.63471596 -11.54388341 12.90335044 -8.6875 9.5 C-7.90761719 8.5615625 -7.12773437 7.623125 -6.32421875 6.65625 C-4.29475183 4.33685924 -2.21090619 2.14513552 0 0 Z " fill="#AEF442" transform="translate(208,214)"></path>
<path d="M0 0 C1.65 0 3.3 0 5 0 C5.48062124 2.68724704 5.95953496 5.37478033 6.4375 8.0625 C6.57220703 8.81466797 6.70691406 9.56683594 6.84570312 10.34179688 C7.6521177 14.88525458 8.37461944 19.42804307 9 24 C8.34 24 7.68 24 7 24 C7 26.31 7 28.62 7 31 C5.02 31 3.04 31 1 31 C-0.06888524 27.52334905 -0.11475767 24.32862522 -0.09765625 20.703125 C-0.09443359 19.49785156 -0.09121094 18.29257813 -0.08789062 17.05078125 C-0.07951172 15.79652344 -0.07113281 14.54226562 -0.0625 13.25 C-0.05798828 11.98027344 -0.05347656 10.71054688 -0.04882812 9.40234375 C-0.03704556 6.26818164 -0.02059416 3.13411459 0 0 Z " fill="#AEF43A" transform="translate(176,197)"></path>
<path d="M0 0 C0.58007812 0.23074219 1.16015625 0.46148437 1.7578125 0.69921875 C1.38269531 1.19808594 1.00757813 1.69695312 0.62109375 2.2109375 C-4.55486373 9.47292318 -7.43810583 17.28697375 -10.2421875 25.69921875 C-10.9021875 25.69921875 -11.5621875 25.69921875 -12.2421875 25.69921875 C-12.36335938 26.60285156 -12.48453125 27.50648438 -12.609375 28.4375 C-12.77695312 29.61699219 -12.94453125 30.79648438 -13.1171875 32.01171875 C-13.27960938 33.18347656 -13.44203125 34.35523438 -13.609375 35.5625 C-14.2421875 38.69921875 -14.2421875 38.69921875 -16.2421875 41.69921875 C-16.97496802 27.62231703 -17.43678192 16.61665666 -8.203125 5.171875 C-3.10225547 -0.41615622 -3.10225547 -0.41615622 0 0 Z " fill="#447F4D" transform="translate(284.2421875,102.30078125)"></path>
<path d="M0 0 C0 3.3 0 6.6 0 10 C-3.55992413 10.57418131 -5.5617639 10.85578351 -9 10 C-12.76386075 7.03264091 -15.88958368 3.63639486 -19 0 C-12.74436739 -4.17042174 -6.55621164 -3.07322421 0 0 Z " fill="#B8F13D" transform="translate(150,219)"></path>
<path d="M0 0 C2.64 0 5.28 0 8 0 C8 6.6 8 13.2 8 20 C5.36 19.67 2.72 19.34 0 19 C0 12.73 0 6.46 0 0 Z " fill="#147044" transform="translate(96,201)"></path>
<path d="M0 0 C0 10.89 0 21.78 0 33 C-2.97 33 -5.94 33 -9 33 C-9 30.03 -9 27.06 -9 24 C-3.25 23.875 -3.25 23.875 -1 25 C-1 18.4 -1 11.8 -1 5 C-3.64 5 -6.28 5 -9 5 C-8.67 3.68 -8.34 2.36 -8 1 C-5.10765685 0.17361624 -3.11257569 0 0 0 Z " fill="#B1EE3B" transform="translate(105,196)"></path>
<path d="M0 0 C4.5638261 1.52127537 5.58805862 4.80670193 7.76953125 8.921875 C9.54811029 13.37114574 9.55135917 17.29302633 9 22 C7.35 22 5.7 22 4 22 C3.82984375 21.29875 3.6596875 20.5975 3.484375 19.875 C1.92731138 13.77926158 0.01993679 8.51919482 -3 3 C-2.01 2.01 -1.02 1.02 0 0 Z " fill="#6B507E" transform="translate(212,209)"></path>
<path d="M0 0 C3.77705497 -0.38046247 5.50455987 -0.34601017 8.66796875 1.86328125 C9.91513672 3.07564453 9.91513672 3.07564453 11.1875 4.3125 C12.44626953 5.51326172 12.44626953 5.51326172 13.73046875 6.73828125 C14.47941406 7.48464844 15.22835937 8.23101562 16 9 C16.59425781 9.55042969 17.18851563 10.10085937 17.80078125 10.66796875 C19 12 19 12 19 14 C16.29675231 14.8447649 14.7612037 15.29120039 12 15 C6.80997653 11.84169258 2.93573792 7.25986377 0 2 C0 1.34 0 0.68 0 0 Z " fill="#AEF138" transform="translate(113,198)"></path>
<path d="M0 0 C0 1.98 0 3.96 0 6 C-1.65 5.67 -3.3 5.34 -5 5 C-5 11.27 -5 17.54 -5 24 C-6.81755864 20.36488272 -8.24244595 16.81617258 -9.625 13 C-10.07101563 11.783125 -10.51703125 10.56625 -10.9765625 9.3125 C-12 6 -12 6 -12 2 C-8.09971775 -0.60018816 -4.52565431 -0.15085514 0 0 Z " fill="#87659C" transform="translate(180,191)"></path>
<path d="M0 0 C0.99 0.33 1.98 0.66 3 1 C4.17420773 5.51618359 4.39107219 7.32784467 2 11.4375 C-1 14 -1 14 -4.8125 14.375 C-5.864375 14.25125 -6.91625 14.1275 -8 14 C-8 12.02 -8 10.04 -8 8 C-5.36 8 -2.72 8 0 8 C0 5.36 0 2.72 0 0 Z " fill="#796687" transform="translate(184,221)"></path>
<path d="M0 0 C0.33 0 0.66 0 1 0 C0.34 21.78 -0.32 43.56 -1 66 C-1.33 66 -1.66 66 -2 66 C-1.99777939 65.33014572 -1.99555878 64.66029144 -1.99327087 63.97013855 C-1.97118273 57.0112664 -1.95607858 50.05240418 -1.94506836 43.09350586 C-1.94003319 40.49486893 -1.9332047 37.89623485 -1.92456055 35.29760742 C-1.91245938 31.56688741 -1.90676359 27.83620478 -1.90234375 24.10546875 C-1.89718246 22.93976852 -1.89202118 21.7740683 -1.88670349 20.57304382 C-1.88662796 19.49214981 -1.88655243 18.4112558 -1.88647461 17.29760742 C-1.884254 16.34496506 -1.88203339 15.39232269 -1.87974548 14.41081238 C-1.89903818 11.85526502 -1.89903818 11.85526502 -3 9 C-2.44140625 6.73828125 -2.44140625 6.73828125 -1.5625 4.3125 C-1.13130859 3.10013672 -1.13130859 3.10013672 -0.69140625 1.86328125 C-0.46324219 1.24839844 -0.23507813 0.63351563 0 0 Z " fill="#5A9954" transform="translate(188,142)"></path>
<path d="M0 0 C0 10.89 0 21.78 0 33 C-0.33 33 -0.66 33 -1 33 C-1 23.76 -1 14.52 -1 5 C-3.64 5 -6.28 5 -9 5 C-8.67 3.68 -8.34 2.36 -8 1 C-5.10765685 0.17361624 -3.11257569 0 0 0 Z " fill="#7B857B" transform="translate(105,196)"></path>
<path d="M0 0 C2.37160148 2.37160148 2.31983352 3.00621122 2.375 6.25 C2.29801482 11.01538294 0.98554417 13.36136804 -2 17 C-2.99 16.01 -3.98 15.02 -5 14 C-4.54625 12.989375 -4.0925 11.97875 -3.625 10.9375 C-2.08137135 7.35276996 -1.000197 3.76997331 0 0 Z " fill="#8ED1A1" transform="translate(140,260)"></path>
<path d="M0 0 C-4.8578271 1.41425287 -9.57187048 0.69496037 -14.53710938 0.22851562 C-19.50010418 -0.1546082 -23.19889886 0.4634157 -28 2 C-30.71562756 2.21794764 -33.26760245 2.0958736 -36 2 C-35.67 1.01 -35.34 0.02 -35 -1 C-23.12508603 -2.19818952 -11.66529085 -2.94923832 0 0 Z " fill="#86C262" transform="translate(277,182)"></path>
<path d="M0 0 C3.48539917 0.64544429 6.02819057 2.10134397 9 4 C8.34 5.32 7.68 6.64 7 8 C3 8 3 8 0 6 C-0.1875 2.875 -0.1875 2.875 0 0 Z " fill="#816393" transform="translate(199,199)"></path>
<path d="M0 0 C3 2 3 2 3.51171875 4.1640625 C3.56972656 4.97617188 3.62773437 5.78828125 3.6875 6.625 C3.75324219 7.44226563 3.81898438 8.25953125 3.88671875 9.1015625 C3.92410156 9.72804687 3.96148437 10.35453125 4 11 C2.35 11 0.7 11 -1 11 C-1.22174933 9.54364629 -1.42698698 8.08477044 -1.625 6.625 C-1.74101562 5.81289062 -1.85703125 5.00078125 -1.9765625 4.1640625 C-1.98429688 3.44992188 -1.99203125 2.73578125 -2 2 C-1.34 1.34 -0.68 0.68 0 0 Z " fill="#502870" transform="translate(217,220)"></path>
<path d="M0 0 C1.98 0 3.96 0 6 0 C6.04241723 2.33294775 6.04092937 4.66702567 6 7 C5 8 5 8 2.4375 8.0625 C1.633125 8.041875 0.82875 8.02125 0 8 C0 5.36 0 2.72 0 0 Z " fill="#96C75A" transform="translate(173,126)"></path>
<path d="M0 0 C1.4540625 0.0309375 1.4540625 0.0309375 2.9375 0.0625 C1.28534004 3.64217992 -0.79374352 6.84232952 -3.0625 10.0625 C-3.3925 10.0625 -3.7225 10.0625 -4.0625 10.0625 C-4.08939216 8.58343108 -4.10884621 7.10422517 -4.125 5.625 C-4.13660156 4.80128906 -4.14820313 3.97757813 -4.16015625 3.12890625 C-4.00103255 -0.23815127 -3.43619093 0.07012635 0 0 Z " fill="#A2E548" transform="translate(179.0625,234.9375)"></path>
<path d="M0 0 C1.9375 0.3125 1.9375 0.3125 4 1 C4.33 1.99 4.66 2.98 5 4 C2.42215154 6.64752004 0.08351902 8.94432065 -3 11 C-2.69078116 9.54096742 -2.37751201 8.08279278 -2.0625 6.625 C-1.88847656 5.81289062 -1.71445313 5.00078125 -1.53515625 4.1640625 C-1 2 -1 2 0 0 Z " fill="#A8EE42" transform="translate(199,206)"></path>
<path d="M0 0 C1.65 0 3.3 0 5 0 C5 2.64 5 5.28 5 8 C3.35 7.67 1.7 7.34 0 7 C0 4.69 0 2.38 0 0 Z " fill="#9BDB4C" transform="translate(101,126)"></path>
<path d="M0 0 C1.38214991 4.14644974 0.04177951 6.06619092 -1.7421875 9.90234375 C-3.36045036 12.60112374 -5.11556073 13.79815031 -8 15 C-6.98187755 12.9637551 -5.96530388 10.93639045 -4.875 8.9375 C-3.79420664 6.89863452 -3.79420664 6.89863452 -4 4 C-2 1.8125 -2 1.8125 0 0 Z " fill="#6EA663" transform="translate(259,104)"></path>
<path d="M0 0 C-2.62198774 2.15377564 -4.64404172 3.40072174 -8 4 C-8 3.34 -8 2.68 -8 2 C-8.78375 2.165 -9.5675 2.33 -10.375 2.5 C-14.93966142 3.12960847 -19.40072601 3.08180527 -24 3 C-24 2.67 -24 2.34 -24 2 C-21.31306278 1.66148822 -18.62559711 1.329064 -15.9375 1 C-14.80924805 0.85691406 -14.80924805 0.85691406 -13.65820312 0.7109375 C-9.06578683 0.15428098 -4.6257865 -0.09829028 0 0 Z " fill="#498055" transform="translate(275,285)"></path>
<path d="M0 0 C0.66 0 1.32 0 2 0 C3.21621622 7.2972973 3.21621622 7.2972973 2.25 10.4375 C1 12 1 12 -2 13 C-1.34 8.71 -0.68 4.42 0 0 Z " fill="#0B673D" transform="translate(143,261)"></path>
<path d="M0 0 C0.144375 0.639375 0.28875 1.27875 0.4375 1.9375 C0.81007181 3.97545146 0.81007181 3.97545146 2 5 C2.07179964 6.51928038 2.08392007 8.04167482 2.0625 9.5625 C2.05347656 10.38878906 2.04445312 11.21507812 2.03515625 12.06640625 C2.01775391 13.02353516 2.01775391 13.02353516 2 14 C1.01 14 0.02 14 -1 14 C-1.02694851 12.04174127 -1.04637218 10.08337774 -1.0625 8.125 C-1.07410156 7.03445312 -1.08570313 5.94390625 -1.09765625 4.8203125 C-1 2 -1 2 0 0 Z " fill="#2A1440" transform="translate(59,227)"></path>
<path d="M0 0 C0.99 0.33 1.98 0.66 3 1 C2.34 1 1.68 1 1 1 C1.08711104 3.75150737 1.19399615 6.49981633 1.3125 9.25 C1.33505859 10.02730469 1.35761719 10.80460938 1.38085938 11.60546875 C1.58460956 15.93979093 1.77175624 18.78041105 5 22 C3.35 22 1.7 22 0 22 C0 14.74 0 7.48 0 0 Z " fill="#838E79" transform="translate(109,207)"></path>
<path d="M0 0 C1.41702513 0.14230808 2.8336096 0.28900746 4.25 0.4375 C5.43335938 0.55931641 5.43335938 0.55931641 6.640625 0.68359375 C8.82364639 0.97634993 10.8773182 1.42064419 13 2 C9.73386305 3.91302307 7.00554752 4.35674661 3.25 4.625 C2.26515625 4.69976562 1.2803125 4.77453125 0.265625 4.8515625 C-0.48203125 4.90054687 -1.2296875 4.94953125 -2 5 C-1.34 3.35 -0.68 1.7 0 0 Z " fill="#84C06D" transform="translate(172,261)"></path>
<path d="M0 0 C2.31 0 4.62 0 7 0 C6.67 1.65 6.34 3.3 6 5 C4.02 5 2.04 5 0 5 C0 3.35 0 1.7 0 0 Z " fill="#7A5392" transform="translate(177,230)"></path>
<path d="M0 0 C1.32 0.66 2.64 1.32 4 2 C3.67 2.66 3.34 3.32 3 4 C2.01 4 1.02 4 0 4 C-2.12708293 5.76248102 -2.12708293 5.76248102 -4.1875 8 C-4.90292969 8.7425 -5.61835938 9.485 -6.35546875 10.25 C-6.89816406 10.8275 -7.44085938 11.405 -8 12 C-8.66 11.67 -9.32 11.34 -10 11 C-6.7 7.37 -3.4 3.74 0 0 Z " fill="#A2E843" transform="translate(208,214)"></path>
<path d="M0 0 C2.27057377 -0.05398987 4.54151288 -0.09278742 6.8125 -0.125 C8.07707031 -0.14820313 9.34164062 -0.17140625 10.64453125 -0.1953125 C14 0 14 0 17 2 C13.37 1.67 9.74 1.34 6 1 C6 1.66 6 2.32 6 3 C7.32 3.33 8.64 3.66 10 4 C8 5 8 5 6.0546875 4.44140625 C5.33539063 4.15136719 4.61609375 3.86132812 3.875 3.5625 C3.15054688 3.27503906 2.42609375 2.98757812 1.6796875 2.69140625 C0.84824219 2.34916016 0.84824219 2.34916016 0 2 C0 1.34 0 0.68 0 0 Z " fill="#5A9B50" transform="translate(215,207)"></path>
<path d="M0 0 C4.875 2.875 4.875 2.875 6 4 C8.33297433 4.04092937 10.66705225 4.04241723 13 4 C13 3.34 13 2.68 13 2 C13.66 2 14.32 2 15 2 C15 2.99 15 3.98 15 5 C11.55213198 6.72393401 7.77006772 6.50222927 4 6 C1.4375 4.125 1.4375 4.125 0 2 C0 1.34 0 0.68 0 0 Z " fill="#768877" transform="translate(119,208)"></path>
<path d="M0 0 C2.31 0 4.62 0 7 0 C7 1.32 7 2.64 7 4 C4.36 4 1.72 4 -1 4 C-0.67 2.68 -0.34 1.36 0 0 Z " fill="#B2EB3F" transform="translate(97,197)"></path>
<path d="M0 0 C-1.49097658 3.7952131 -3.75700849 5.61042731 -7 8 C-6.95875 7.21625 -6.9175 6.4325 -6.875 5.625 C-6.71271266 2.83883881 -6.71271266 2.83883881 -9 1 C-5.846632 0.29925156 -3.27275026 0 0 0 Z " fill="#69AC4D" transform="translate(350,100)"></path>
<path d="M0 0 C0.66 0.33 1.32 0.66 2 1 C1.67 4.63 1.34 8.26 1 12 C0.34 11.67 -0.32 11.34 -1 11 C-1.484375 9.00390625 -1.484375 9.00390625 -1.75 6.5625 C-1.84796875 5.75941406 -1.9459375 4.95632813 -2.046875 4.12890625 C-2 2 -2 2 0 0 Z " fill="#32946E" transform="translate(134,285)"></path>
<path d="M0 0 C0 4.62 0 9.24 0 14 C-0.33 14 -0.66 14 -1 14 C-1.33 10.37 -1.66 6.74 -2 3 C-3.65 4.32 -5.3 5.64 -7 7 C-6.61402985 4.20171644 -6.19863427 3.1794116 -4.0625 1.25 C-2 0 -2 0 0 0 Z " fill="#A9E542" transform="translate(90,223)"></path>
<path d="M0 0 C2 2 2 2 2.125 5.625 C2.08375 6.73875 2.0425 7.8525 2 9 C1.01 9 0.02 9 -1 9 C-2.60031344 5.79937313 -1.03173691 3.27728194 0 0 Z M-2 9 C-2 12 -2 12 -2 12 Z " fill="#9FDFB0" transform="translate(140,260)"></path>
<path d="M0 0 C0.33 0 0.66 0 1 0 C0.67 6.27 0.34 12.54 0 19 C-0.33 19 -0.66 19 -1 19 C-3.10302072 11.75289981 -3.10746049 6.9166056 0 0 Z " fill="#528D54" transform="translate(188,142)"></path>
<path d="M0 0 C3.3 0 6.6 0 10 0 C10.33 3.3 10.66 6.6 11 10 C9.35 8.35 7.7 6.7 6 5 C6.99 5 7.98 5 9 5 C9 3.68 9 2.36 9 1 C6.03 1 3.06 1 0 1 C0 0.67 0 0.34 0 0 Z " fill="#98AB6A" transform="translate(141,229)"></path>
<path d="M0 0 C0.33 0 0.66 0 1 0 C1.66 5.61 2.32 11.22 3 17 C2.34 17 1.68 17 1 17 C-2 12.61538462 -2 12.61538462 -2 10 C-1.34 10 -0.68 10 0 10 C0 6.7 0 3.4 0 0 Z " fill="#569351" transform="translate(187,209)"></path>
<path d="M0 0 C0.33 0 0.66 0 1 0 C0.56179109 4.55737263 0.14958831 7.57653445 -3 11 C-3.75 8.875 -3.75 8.875 -4 6 C-2.125 2.6875 -2.125 2.6875 0 0 Z " fill="#579355" transform="translate(221,110)"></path>
<path d="M0 0 C0.66 0.33 1.32 0.66 2 1 C1.27683594 1.67095703 1.27683594 1.67095703 0.5390625 2.35546875 C-4.30796815 6.95594955 -4.30796815 6.95594955 -7 13 C-7.640625 11.2265625 -7.640625 11.2265625 -8 9 C-7.109375 7.1484375 -7.109375 7.1484375 -5.75 5.375 C-5.31171875 4.78460938 -4.8734375 4.19421875 -4.421875 3.5859375 C-3 2 -3 2 0 0 Z " fill="#95CD56" transform="translate(111,76)"></path>
<path d="M0 0 C1.258125 -0.04125 2.51625 -0.0825 3.8125 -0.125 C4.52019531 -0.14820313 5.22789062 -0.17140625 5.95703125 -0.1953125 C8 0 8 0 11 2 C9.35 2 7.7 2 6 2 C5.67 2.99 5.34 3.98 5 5 C3.35 3.35 1.7 1.7 0 0 Z " fill="#5C964E" transform="translate(172,265)"></path>
<path d="M0 0 C5.94 0 11.88 0 18 0 C14 3 14 3 12 3 C12 2.34 12 1.68 12 1 C8.04 1 4.08 1 0 1 C0 0.67 0 0.34 0 0 Z " fill="#427A52" transform="translate(283,231)"></path>
<path d="M0 0 C1.15941038 3.47823115 0.70820884 5.45895578 0 9 C-0.66 8.34 -1.32 7.68 -2 7 C-2.99 7.66 -3.98 8.32 -5 9 C-3.7508258 5.54074837 -2.32472205 2.85306797 0 0 Z " fill="#508159" transform="translate(165,176)"></path>
<path d="M0 0 C0.66 0 1.32 0 2 0 C1.55090939 1.48199902 1.09043436 2.96055236 0.625 4.4375 C0.36976562 5.26121094 0.11453125 6.08492187 -0.1484375 6.93359375 C-1 9 -1 9 -3 10 C-2.25 3.375 -2.25 3.375 0 0 Z " fill="#684A72" transform="translate(63,213)"></path>
<path d="M0 0 C0.66 0.33 1.32 0.66 2 1 C1.07347299 2.17539996 0.13336613 3.34010577 -0.8125 4.5 C-1.33457031 5.1496875 -1.85664063 5.799375 -2.39453125 6.46875 C-4 8 -4 8 -7 8 C-5.50902342 4.2047869 -3.24299151 2.38957269 0 0 Z " fill="#9BE643" transform="translate(250,174)"></path>
<path d="M0 0 C0.33 0 0.66 0 1 0 C1.66 3.63 2.32 7.26 3 11 C2.34 11 1.68 11 1 11 C0.67 11.66 0.34 12.32 0 13 C-0.96661363 9.87819599 -0.98988909 7.47916205 -0.5625 4.25 C-0.46066406 3.45078125 -0.35882813 2.6515625 -0.25390625 1.828125 C-0.17011719 1.22484375 -0.08632812 0.6215625 0 0 Z " fill="#609D56" transform="translate(215,184)"></path>
<path d="M0 0 C0.9075 0.103125 1.815 0.20625 2.75 0.3125 C2.1725 0.56 1.595 0.8075 1 1.0625 C-1.5502997 2.47933317 -3.26785701 4.18877537 -5.25 6.3125 C-5.91 5.9825 -6.57 5.6525 -7.25 5.3125 C-4.05 0.38942308 -4.05 0.38942308 0 0 Z " fill="#9BDD46" transform="translate(189.25,240.6875)"></path>
<path d="M0 0 C1.32 0 2.64 0 4 0 C4 0.66 4 1.32 4 2 C2.37373596 3.38232443 0.7074998 4.71937515 -1 6 C-1.66 5.67 -2.32 5.34 -3 5 C-1.75 2.5 -1.75 2.5 0 0 Z " fill="#9CE449" transform="translate(245,166)"></path>
<path d="M0 0 C0.99 0 1.98 0 3 0 C3 1.98 3 3.96 3 6 C2.01 6 1.02 6 0 6 C0 4.02 0 2.04 0 0 Z " fill="#A6F934" transform="translate(174,127)"></path>
<path d="M0 0 C0.99 0 1.98 0 3 0 C3 1.98 3 3.96 3 6 C2.01 6 1.02 6 0 6 C0 4.02 0 2.04 0 0 Z " fill="#A7FA33" transform="translate(102,127)"></path>
<path d="M0 0 C1.32 0.33 2.64 0.66 4 1 C4.33 2.32 4.66 3.64 5 5 C3.35 4.67 1.7 4.34 0 4 C0 2.68 0 1.36 0 0 Z " fill="#308D6D" transform="translate(109,295)"></path>
<path d="M0 0 C0.66666667 2.66666667 1.33333333 5.33333333 2 8 C1.01 8.33 0.02 8.66 -1 9 C-1.125 2.25 -1.125 2.25 0 0 Z " fill="#3F1D52" transform="translate(59,227)"></path>
<path d="M0 0 C2.64 0 5.28 0 8 0 C7.67 0.99 7.34 1.98 7 3 C4.69 2.67 2.38 2.34 0 2 C0 1.34 0 0.68 0 0 Z " fill="#857583" transform="translate(96,229)"></path>
</svg><style>@media (prefers-color-scheme: light) { :root { filter: none; } }
@media (prefers-color-scheme: dark) { :root { filter: none; } }
</style></svg>